<?xml version="1.0" encoding="utf-8"?>
<svg xmlns="http://www.w3.org/2000/svg" version="1.1" style="" width="1063" height="792" xmlns:bx="https://boxy-svg.com">
  <defs>
    <filter id="gaussian-blur-filter-0" bx:preset="gaussian-blur 1 10" color-interpolation-filters="sRGB" x="-50%" y="-50%" width="200%" height="200%">
      <feGaussianBlur stdDeviation="10 10" edgeMode="none"/>
    </filter>
    <filter id="motion-blur-filter-0" bx:preset="motion-blur 1 11 horizontal" color-interpolation-filters="sRGB" x="-50%" y="-50%" width="200%" height="200%">
      <feGaussianBlur stdDeviation="11 0" edgeMode="none"/>
    </filter>
  </defs>
  <rect id="backgroundrect" width="100%" height="100%" x="0" y="0" fill="none" stroke="none"/>
  <g transform="matrix(1, 0, 0, 1, -407.127808, 63.785015)">
    <g class="currentLayer" style="" transform="matrix(1, 0, 0, 1, 212.755356, -6.649182)">
      <title>Layer 1</title>
      <path d="M 1216.56 453.526 C 1208.32 457.746 1200.07 461.946 1191.83 466.186 C 1176.21 474.226 1160.6 482.286 1144.98 490.336 C 1135.33 495.316 1125.68 500.306 1116.03 505.286 C 1100.41 513.336 1084.79 521.376 1069.17 529.426 C 1059.37 534.476 1049.59 539.546 1039.8 544.606 C 1024.33 552.586 1008.85 560.556 993.372 568.536 C 983.572 573.586 973.782 578.636 963.982 583.686 C 948.652 591.596 933.322 599.506 917.992 607.416 C 908.272 612.436 898.552 617.456 888.822 622.466 C 873.272 630.476 857.722 638.486 842.182 646.506 C 832.312 651.596 822.462 656.696 812.592 661.786 C 797.192 669.736 781.782 677.666 766.382 685.616 C 759.282 689.276 752.192 692.946 745.102 696.626 C 744.492 696.946 743.942 697.396 743.362 697.776 C 743.042 697.776 742.722 697.776 742.402 697.776 C 741.972 697.456 741.572 697.076 741.092 696.836 C 729.372 690.806 717.652 684.786 705.932 678.756 C 690.732 670.926 675.552 663.086 660.362 655.256 C 650.492 650.166 640.632 645.076 630.762 639.986 C 615.362 632.046 599.952 624.106 584.542 616.156 C 574.742 611.106 564.962 606.036 555.162 600.976 C 539.832 593.066 524.492 585.176 509.152 577.266 C 499.282 572.176 489.422 567.076 479.562 561.986 C 464.162 554.036 448.752 546.096 433.352 538.156 C 423.552 533.106 413.762 528.056 403.962 523.006 C 388.482 515.026 373.012 507.046 357.532 499.066 C 347.812 494.046 338.092 489.016 328.362 483.996 C 312.962 476.056 297.542 468.116 282.142 460.176 C 277.812 457.946 273.512 455.666 268.972 453.296 C 269.502 452.906 269.872 452.566 270.302 452.336 C 278.182 448.266 286.062 444.206 293.942 440.146 C 310.702 431.526 327.472 422.906 344.232 414.276 C 353.892 409.306 363.532 404.296 373.192 399.326 C 390.522 390.406 407.862 381.506 425.192 372.596 C 435.922 367.086 446.642 361.566 457.362 356.046 C 473.622 347.676 489.882 339.296 506.152 330.926 C 516.942 325.366 527.742 319.816 538.542 314.266 C 539.372 313.836 540.202 313.396 541.362 312.786 C 541.942 323.136 542.502 333.196 543.072 343.436 C 540.712 344.686 538.342 345.976 535.942 347.206 C 520.662 355.056 505.382 362.886 490.102 370.726 C 479.302 376.276 468.512 381.826 457.712 387.386 C 446.772 393.016 435.842 398.646 424.902 404.276 C 414.252 409.766 403.602 415.256 392.952 420.736 C 382.092 426.336 371.222 431.916 360.352 437.516 C 350.842 442.416 341.332 447.336 331.822 452.246 C 331.352 452.496 330.922 452.826 330.312 453.216 C 332.832 454.536 335.142 455.766 337.482 456.976 C 348.992 462.896 360.502 468.796 372.002 474.726 C 387.122 482.516 402.242 490.326 417.352 498.136 C 427.142 503.196 436.942 508.256 446.732 513.306 C 461.922 521.146 477.112 528.976 492.302 536.816 C 502.102 541.866 511.892 546.916 521.692 551.976 C 536.812 559.776 551.932 567.586 567.042 575.386 C 576.832 580.446 586.632 585.496 596.422 590.556 C 609.132 597.116 621.832 603.666 634.542 610.216 C 646.822 616.546 659.102 622.886 671.382 629.226 C 686.502 637.026 701.622 644.826 716.732 652.636 C 724.892 656.856 733.052 661.076 741.172 665.346 C 742.352 665.966 743.282 665.996 744.482 665.356 C 751.122 661.846 757.802 658.426 764.482 654.986 C 780.172 646.896 795.862 638.806 811.552 630.716 C 821.202 625.736 830.852 620.746 840.502 615.766 C 855.762 607.896 871.032 600.026 886.292 592.156 C 895.942 587.176 905.592 582.196 915.252 577.206 C 930.582 569.296 945.912 561.386 961.242 553.466 C 970.962 548.446 980.692 543.426 990.412 538.406 C 1005.61 530.566 1020.8 522.736 1035.99 514.896 C 1045.71 509.876 1055.43 504.856 1065.16 499.836 C 1080.42 491.956 1095.68 484.086 1110.94 476.216 C 1120.66 471.196 1130.39 466.186 1140.11 461.156 C 1145.14 458.556 1150.16 455.936 1155.52 453.156 C 1153.41 452.026 1151.55 450.996 1149.67 450.026 C 1137.02 443.526 1124.37 437.046 1111.72 430.546 C 1100.85 424.956 1089.99 419.366 1079.12 413.766 C 1068.25 408.176 1057.39 402.576 1046.52 396.986 C 1035.72 391.426 1024.93 385.876 1014.13 380.326 C 1003.33 374.776 992.532 369.226 981.732 363.666 C 972.082 358.686 962.432 353.696 952.782 348.706 C 952.292 348.456 951.842 348.136 951.302 347.806 C 951.842 337.686 952.372 327.616 952.932 317.256 C 955.732 318.646 958.242 319.856 960.712 321.126 C 967.952 324.856 975.182 328.616 982.422 332.346 C 996.916 339.796 1011.42 347.236 1025.91 354.686 C 1036.21 359.986 1046.5 365.296 1056.8 370.596 C 1073.56 379.226 1090.33 387.836 1107.09 396.466 C 1117.53 401.836 1127.96 407.236 1138.4 412.606 C 1155.02 421.156 1171.65 429.696 1188.27 438.246 C 1196.01 442.226 1203.75 446.216 1211.48 450.226 C 1213.18 451.106 1214.82 452.086 1216.49 453.026 C 1216.56 453.206 1216.56 453.366 1216.56 453.526 Z M 707.292 181.516 C 697.912 240.606 688.582 299.406 679.202 358.506 C 694.102 358.506 708.612 358.506 723.282 358.506 C 723.362 371.156 723.252 383.566 723.342 396.496 C 724.212 395.586 724.662 395.156 725.062 394.686 C 734.532 383.256 744.032 371.846 753.412 360.346 C 754.622 358.866 755.832 358.386 757.652 358.386 C 772.212 358.446 786.762 358.416 801.322 358.416 C 802.172 358.416 803.022 358.416 804.142 358.416 C 802.552 348.256 801.012 338.426 799.452 328.596 C 797.912 318.836 796.352 309.076 794.782 299.326 C 793.202 289.486 791.592 279.656 790.032 269.816 C 788.472 259.976 786.972 250.126 785.422 240.286 C 783.882 230.526 782.282 220.776 780.762 211.006 C 779.242 201.226 777.552 191.476 776.162 181.496 C 790.342 183.566 804.152 185.576 818.382 187.656 C 792.672 130.316 767.182 73.466 741.672 16.556 C 716.122 74.326 690.632 131.976 664.972 189.986 C 679.222 187.136 693.092 184.356 707.292 181.516 Z M 534.652 548.256 C 537.682 549.846 540.702 551.446 543.742 553.016 C 558.002 560.396 572.272 567.746 586.522 575.136 C 595.382 579.736 604.222 584.386 613.072 588.996 C 626.602 596.046 640.132 603.096 653.662 610.136 C 662.302 614.636 670.962 619.106 679.612 623.596 C 693.002 630.566 706.392 637.546 719.772 644.516 C 726.782 648.166 733.812 651.786 740.802 655.486 C 741.902 656.066 742.792 656.226 743.912 655.596 C 746.072 654.386 748.302 653.306 750.502 652.156 C 763.672 645.296 776.842 638.416 790.022 631.566 C 796.822 628.026 803.642 624.526 810.452 620.986 C 823.492 614.206 836.512 607.396 849.542 600.616 C 858.612 595.896 867.702 591.226 876.772 586.506 C 891.722 578.726 906.652 570.916 921.602 563.146 C 930.742 558.396 939.902 553.676 949.052 548.936 C 949.632 548.636 950.152 548.206 951.002 547.636 C 949.472 547.456 948.372 547.256 947.262 547.196 C 943.282 546.996 939.292 546.856 935.312 546.666 C 933.322 546.566 931.342 546.386 929.352 546.236 C 926.522 546.016 923.942 546.466 921.342 547.866 C 911.492 553.166 901.532 558.246 891.612 563.396 C 882.542 568.106 873.452 572.796 864.372 577.486 C 846.842 586.536 829.302 595.576 811.782 604.636 C 806.322 607.456 800.882 610.336 795.422 613.166 C 793.122 614.356 790.792 615.486 788.012 616.876 C 794.802 593.686 801.442 570.986 808.172 547.986 C 805.662 547.986 803.432 547.986 801.202 547.986 C 787.682 547.986 774.172 547.956 760.652 548.026 C 759.142 548.036 758.122 547.626 757.232 546.406 C 755.682 544.276 753.982 542.256 752.342 540.196 C 743.242 528.766 734.142 517.336 725.032 505.906 C 724.632 505.396 724.122 504.976 723.242 504.096 C 723.242 519.066 723.242 533.406 723.242 547.986 C 708.072 547.986 693.142 547.986 677.872 547.986 C 684.412 571.026 691.122 593.686 697.662 616.776 C 696.912 616.476 696.612 616.386 696.342 616.246 C 681.292 608.486 666.242 600.726 651.192 592.976 C 639.832 587.126 628.462 581.286 617.092 575.446 C 599.612 566.466 582.132 557.496 564.662 548.496 C 563.342 547.816 562.042 547.476 560.552 547.486 C 553.592 547.536 546.632 547.496 539.682 547.516 C 538.032 547.526 536.392 547.656 534.742 547.736 C 534.712 547.906 534.682 548.086 534.652 548.256 Z M 944.392 474.526 C 943.862 473.886 943.322 473.256 942.822 472.596 C 938.722 467.186 934.622 461.776 930.532 456.356 C 916.152 437.296 901.762 418.226 887.392 399.156 C 881.572 391.436 875.762 383.716 869.972 375.986 C 869.212 374.976 868.472 374.376 867.052 374.386 C 856.412 374.456 845.782 374.426 835.142 374.436 C 834.542 374.436 833.932 374.576 833.372 374.636 C 833.372 427.096 833.372 479.356 833.372 531.676 C 845.342 531.676 857.142 531.676 869.182 531.676 C 869.182 528.536 869.182 525.516 869.182 522.496 C 869.182 519.456 869.182 516.416 869.182 513.376 C 869.182 510.256 869.182 507.136 869.182 504.016 C 869.182 500.976 869.182 497.936 869.182 494.896 C 869.182 491.856 869.182 488.816 869.182 485.776 C 869.182 482.736 869.182 479.696 869.182 476.656 C 869.182 473.616 869.182 470.576 869.182 467.536 C 869.182 464.496 869.182 461.456 869.182 458.416 C 869.182 455.296 869.182 452.176 869.182 449.056 C 869.182 446.016 869.152 442.976 869.192 439.936 C 869.222 436.966 869.042 433.976 869.352 430.556 C 870.052 431.416 870.462 431.876 870.832 432.376 C 875.892 439.166 880.932 445.966 885.992 452.746 C 894.122 463.626 902.272 474.486 910.392 485.366 C 921.572 500.346 932.752 515.326 943.892 530.326 C 944.702 531.416 945.572 531.806 946.892 531.796 C 957.292 531.746 967.682 531.776 978.082 531.766 C 978.692 531.766 979.292 531.646 979.872 531.586 C 979.872 479.146 979.872 426.886 979.872 374.536 C 968.172 374.536 956.622 374.536 944.822 374.536 C 944.822 407.896 944.822 441.106 944.822 474.316 C 944.692 474.416 944.542 474.476 944.392 474.526 Z M 541.662 374.556 C 529.632 374.556 517.842 374.556 505.922 374.556 C 505.922 426.996 505.922 479.316 505.922 531.676 C 517.882 531.676 529.682 531.676 541.742 531.676 C 541.742 529.006 541.742 526.466 541.742 523.936 C 541.742 521.296 541.742 518.656 541.742 516.016 C 541.742 513.456 541.742 510.896 541.742 508.336 C 541.742 505.696 541.742 503.056 541.742 500.416 C 541.742 497.856 541.742 495.296 541.742 492.736 C 541.742 490.096 541.742 487.456 541.742 484.816 C 541.742 482.256 541.722 479.696 541.742 477.136 C 541.762 474.536 541.652 471.936 541.812 469.436 C 561.462 469.436 580.772 469.436 600.362 469.436 C 600.362 490.276 600.362 510.936 600.362 531.616 C 612.502 531.616 624.372 531.616 636.262 531.616 C 636.262 479.186 636.262 426.936 636.262 374.586 C 624.232 374.586 612.372 374.586 600.262 374.586 C 600.262 394.716 600.262 414.666 600.262 434.746 C 580.692 434.746 561.372 434.746 541.652 434.746 C 541.662 414.576 541.662 394.626 541.662 374.556 Z M 707.262 440.486 C 707.262 418.546 707.262 396.616 707.262 374.556 C 695.202 374.556 683.412 374.556 671.502 374.556 C 671.502 427.006 671.502 479.326 671.502 531.666 C 683.472 531.666 695.262 531.666 707.362 531.666 C 707.362 507.206 707.362 482.896 707.362 458.046 C 708.112 458.896 708.492 459.276 708.822 459.696 C 727.562 483.246 746.312 506.796 765.032 530.356 C 765.762 531.276 766.502 531.836 767.792 531.836 C 781.072 531.786 794.342 531.806 807.622 531.796 C 808.112 531.796 808.602 531.626 809.312 531.506 C 798.262 517.696 787.392 504.116 776.512 490.536 C 765.592 476.896 754.662 463.266 743.722 449.606 C 752.122 439.616 760.392 429.786 768.652 419.956 C 780.872 405.416 793.102 390.886 805.322 376.346 C 805.742 375.846 806.072 375.276 806.672 374.416 C 800.652 374.416 795.142 374.416 789.632 374.416 C 781.232 374.416 772.832 374.446 764.442 374.386 C 763.182 374.376 762.322 374.736 761.582 375.706 C 760.662 376.916 759.702 378.086 758.732 379.256 C 745.592 395.106 732.452 410.966 719.312 426.806 C 715.492 431.416 711.662 436.006 707.832 440.606 C 707.642 440.576 707.452 440.526 707.262 440.486 Z M 858.042 237.056 C 871.362 240.656 884.622 244.236 898.042 247.866 C 895.212 255.526 892.502 262.856 889.802 270.186 C 887.092 277.526 884.402 284.866 881.702 292.206 C 879.002 299.546 876.302 306.886 873.592 314.226 C 870.892 321.566 868.132 328.886 865.482 336.246 C 862.852 343.566 859.972 350.796 857.442 358.426 C 858.612 358.426 859.412 358.426 860.202 358.426 C 865.082 358.426 869.962 358.476 874.842 358.396 C 876.262 358.376 877.162 358.796 878.022 359.956 C 882.642 366.176 887.372 372.316 892.032 378.496 C 903.762 394.056 915.482 409.626 927.222 425.186 C 927.572 425.656 928.022 426.056 928.602 426.686 C 928.762 424.946 928.952 423.526 929.022 422.096 C 929.262 417.076 929.422 412.056 929.692 407.036 C 930.072 400.196 930.542 393.356 930.942 386.526 C 931.172 382.466 931.312 378.396 931.532 374.336 C 931.802 369.406 932.112 364.476 932.382 359.536 C 932.602 355.476 932.782 351.416 932.982 347.346 C 933.262 341.856 933.552 336.366 933.822 330.866 C 934.052 326.166 934.222 321.466 934.482 316.766 C 934.872 309.926 935.332 303.086 935.732 296.256 C 935.962 292.276 936.122 288.296 936.332 284.316 C 936.602 279.226 936.922 274.136 937.172 269.036 C 937.422 264.016 937.562 258.996 937.842 253.976 C 938.212 247.216 938.692 240.456 939.092 233.706 C 939.332 229.566 939.502 225.426 939.712 221.286 C 939.992 215.716 940.272 210.146 940.542 204.566 C 940.772 199.946 940.942 195.326 941.212 190.706 C 941.602 183.866 942.062 177.026 942.462 170.196 C 942.692 166.296 942.842 162.386 943.032 158.486 C 943.142 156.296 943.252 154.106 943.372 151.816 C 941.522 152.886 859.312 235.036 858.042 237.056 Z M 594.032 247.856 C 608.322 244.206 622.342 240.636 636.572 236.996 C 636.182 236.466 636.032 236.186 635.822 235.976 C 607.762 207.956 579.702 179.936 551.642 151.926 C 551.592 151.876 551.492 151.866 551.422 151.876 C 551.342 151.886 551.272 151.926 551.052 152.016 C 551.052 152.656 551.012 153.356 551.062 154.056 C 551.472 160.736 551.912 167.406 552.312 174.086 C 552.532 177.826 552.672 181.566 552.872 185.316 C 553.162 190.806 553.472 196.296 553.762 201.786 C 553.992 206.246 554.172 210.706 554.432 215.166 C 554.822 221.846 555.282 228.516 555.682 235.196 C 555.912 239.016 556.062 242.836 556.262 246.656 C 556.542 252.066 556.852 257.476 557.132 262.886 C 557.362 267.346 557.532 271.806 557.792 276.266 C 558.182 282.946 558.642 289.616 559.042 296.296 C 559.272 300.116 559.402 303.936 559.612 307.756 C 559.882 312.766 560.222 317.776 560.482 322.786 C 560.732 327.646 560.872 332.506 561.152 337.366 C 561.532 343.966 562.002 350.556 562.402 357.156 C 562.642 361.136 562.782 365.116 562.992 369.096 C 563.272 374.426 563.572 379.756 563.852 385.086 C 564.082 389.626 564.272 394.166 564.522 398.706 C 564.812 403.956 565.132 409.206 565.462 414.446 C 565.552 415.866 565.712 417.276 565.852 418.766 C 571.982 418.766 577.932 418.766 584.212 418.766 C 584.212 398.616 584.212 378.606 584.212 358.396 C 601.922 358.396 619.322 358.396 637.102 358.396 C 622.672 321.396 608.392 284.716 594.032 247.856 Z M 489.472 397.086 C 489.472 391.856 489.472 386.786 489.472 381.486 C 488.942 381.686 488.582 381.786 488.252 381.956 C 474.342 389.126 460.432 396.306 446.512 403.476 C 435.652 409.076 424.782 414.656 413.922 420.246 C 402.982 425.876 392.052 431.516 381.112 437.126 C 371.302 442.156 361.482 447.166 351.682 452.196 C 351.222 452.436 350.812 452.786 350.132 453.256 C 396.662 477.206 442.922 501.016 489.462 524.966 C 489.462 519.486 489.462 514.416 489.462 509.196 C 453.342 490.606 417.212 472.006 380.582 453.146 C 417.252 434.266 453.372 415.676 489.472 397.086 Z M 1102.19 454.746 C 1091.69 460.166 1081.18 465.576 1070.67 470.986 C 1056.75 478.146 1042.84 485.306 1028.91 492.456 C 1018.97 497.566 1009.01 502.646 999.066 507.756 C 998.086 508.256 997.156 508.846 996.346 509.316 C 996.346 514.566 996.346 519.566 996.346 524.826 C 997.266 524.406 997.986 524.116 998.676 523.756 C 1005.99 519.996 1013.3 516.216 1020.61 512.446 C 1034.1 505.496 1047.58 498.546 1061.07 491.606 C 1071.93 486.016 1082.79 480.416 1093.66 474.836 C 1106.31 468.346 1118.96 461.876 1131.61 455.386 C 1132.91 454.716 1134.17 453.966 1135.75 453.076 C 1089.09 429.056 1042.84 405.256 996.326 381.316 C 996.326 386.796 996.326 391.876 996.326 397.086 C 1032.45 415.676 1068.56 434.266 1105.1 453.086 C 1103.85 453.806 1103.04 454.306 1102.19 454.746 Z M 809.072 396.906 C 794.182 414.606 779.372 432.216 764.522 449.866 C 779.442 468.486 794.192 486.896 809.252 505.696 C 809.812 501.046 809.622 398.756 809.072 396.906 Z M 810.722 247.896 C 811.142 251.376 811.622 254.836 812.062 258.316 C 812.822 264.236 813.592 270.146 814.292 276.076 C 814.412 277.066 814.752 277.676 815.642 278.106 C 817.362 278.946 819.032 279.876 820.732 280.756 C 828.102 284.566 835.472 288.386 842.852 292.176 C 848.162 294.906 853.492 297.586 859.012 300.396 C 862.292 291.486 865.522 282.706 868.782 273.846 C 849.322 263.826 830.122 253.936 810.432 243.806 C 810.562 245.526 810.582 246.716 810.722 247.896 Z M 633.022 297.226 C 645.162 290.966 657.052 284.846 668.752 278.816 C 670.162 267.456 671.532 256.456 672.942 245.046 C 655.982 253.776 639.482 262.266 622.722 270.896 C 626.212 279.806 629.602 288.466 633.022 297.226 Z M 816.062 288.526 C 815.992 289.126 815.922 289.376 815.952 289.606 C 816.552 294.426 817.202 299.236 817.732 304.056 C 817.862 305.266 818.652 305.616 819.502 306.056 C 828.792 310.856 838.082 315.666 847.372 320.456 C 848.492 321.036 849.642 321.546 851.002 322.196 C 852.632 317.776 854.192 313.536 855.862 309.006 C 842.482 302.136 829.342 295.366 816.062 288.526 Z M 643.722 317.696 C 647.352 315.856 650.972 313.996 654.592 312.136 C 657.572 310.606 660.542 309.056 663.542 307.546 C 664.872 306.876 665.542 305.956 665.622 304.386 C 665.742 302.166 666.192 299.966 666.452 297.756 C 666.752 295.236 666.992 292.706 667.302 289.776 C 656.802 295.176 646.632 300.416 636.352 305.706 C 638.092 310.166 639.742 314.376 641.432 318.716 C 642.302 318.336 643.022 318.046 643.722 317.696 Z" id="svg_1" class="selected" fill-opacity="1" fill="#16dcdf"/>
    </g>
    <g class="currentLayer" style="filter: url(&quot;#gaussian-blur-filter-0&quot;) url(&quot;#motion-blur-filter-0&quot;);" transform="matrix(1, 0, 0, 1, 212.755356, -6.649182)">
      <title>Layer 1</title>
      <path d="M 1216.56 453.526 C 1208.32 457.746 1200.07 461.946 1191.83 466.186 C 1176.21 474.226 1160.6 482.286 1144.98 490.336 C 1135.33 495.316 1125.68 500.306 1116.03 505.286 C 1100.41 513.336 1084.79 521.376 1069.17 529.426 C 1059.37 534.476 1049.59 539.546 1039.8 544.606 C 1024.33 552.586 1008.85 560.556 993.372 568.536 C 983.572 573.586 973.782 578.636 963.982 583.686 C 948.652 591.596 933.322 599.506 917.992 607.416 C 908.272 612.436 898.552 617.456 888.822 622.466 C 873.272 630.476 857.722 638.486 842.182 646.506 C 832.312 651.596 822.462 656.696 812.592 661.786 C 797.192 669.736 781.782 677.666 766.382 685.616 C 759.282 689.276 752.192 692.946 745.102 696.626 C 744.492 696.946 743.942 697.396 743.362 697.776 C 743.042 697.776 742.722 697.776 742.402 697.776 C 741.972 697.456 741.572 697.076 741.092 696.836 C 729.372 690.806 717.652 684.786 705.932 678.756 C 690.732 670.926 675.552 663.086 660.362 655.256 C 650.492 650.166 640.632 645.076 630.762 639.986 C 615.362 632.046 599.952 624.106 584.542 616.156 C 574.742 611.106 564.962 606.036 555.162 600.976 C 539.832 593.066 524.492 585.176 509.152 577.266 C 499.282 572.176 489.422 567.076 479.562 561.986 C 464.162 554.036 448.752 546.096 433.352 538.156 C 423.552 533.106 413.762 528.056 403.962 523.006 C 388.482 515.026 373.012 507.046 357.532 499.066 C 347.812 494.046 338.092 489.016 328.362 483.996 C 312.962 476.056 297.542 468.116 282.142 460.176 C 277.812 457.946 273.512 455.666 268.972 453.296 C 269.502 452.906 269.872 452.566 270.302 452.336 C 278.182 448.266 286.062 444.206 293.942 440.146 C 310.702 431.526 327.472 422.906 344.232 414.276 C 353.892 409.306 363.532 404.296 373.192 399.326 C 390.522 390.406 407.862 381.506 425.192 372.596 C 435.922 367.086 446.642 361.566 457.362 356.046 C 473.622 347.676 489.882 339.296 506.152 330.926 C 516.942 325.366 527.742 319.816 538.542 314.266 C 539.372 313.836 540.202 313.396 541.362 312.786 C 541.942 323.136 542.502 333.196 543.072 343.436 C 540.712 344.686 538.342 345.976 535.942 347.206 C 520.662 355.056 505.382 362.886 490.102 370.726 C 479.302 376.276 468.512 381.826 457.712 387.386 C 446.772 393.016 435.842 398.646 424.902 404.276 C 414.252 409.766 403.602 415.256 392.952 420.736 C 382.092 426.336 371.222 431.916 360.352 437.516 C 350.842 442.416 341.332 447.336 331.822 452.246 C 331.352 452.496 330.922 452.826 330.312 453.216 C 332.832 454.536 335.142 455.766 337.482 456.976 C 348.992 462.896 360.502 468.796 372.002 474.726 C 387.122 482.516 402.242 490.326 417.352 498.136 C 427.142 503.196 436.942 508.256 446.732 513.306 C 461.922 521.146 477.112 528.976 492.302 536.816 C 502.102 541.866 511.892 546.916 521.692 551.976 C 536.812 559.776 551.932 567.586 567.042 575.386 C 576.832 580.446 586.632 585.496 596.422 590.556 C 609.132 597.116 621.832 603.666 634.542 610.216 C 646.822 616.546 659.102 622.886 671.382 629.226 C 686.502 637.026 701.622 644.826 716.732 652.636 C 724.892 656.856 733.052 661.076 741.172 665.346 C 742.352 665.966 743.282 665.996 744.482 665.356 C 751.122 661.846 757.802 658.426 764.482 654.986 C 780.172 646.896 795.862 638.806 811.552 630.716 C 821.202 625.736 830.852 620.746 840.502 615.766 C 855.762 607.896 871.032 600.026 886.292 592.156 C 895.942 587.176 905.592 582.196 915.252 577.206 C 930.582 569.296 945.912 561.386 961.242 553.466 C 970.962 548.446 980.692 543.426 990.412 538.406 C 1005.61 530.566 1020.8 522.736 1035.99 514.896 C 1045.71 509.876 1055.43 504.856 1065.16 499.836 C 1080.42 491.956 1095.68 484.086 1110.94 476.216 C 1120.66 471.196 1130.39 466.186 1140.11 461.156 C 1145.14 458.556 1150.16 455.936 1155.52 453.156 C 1153.41 452.026 1151.55 450.996 1149.67 450.026 C 1137.02 443.526 1124.37 437.046 1111.72 430.546 C 1100.85 424.956 1089.99 419.366 1079.12 413.766 C 1068.25 408.176 1057.39 402.576 1046.52 396.986 C 1035.72 391.426 1024.93 385.876 1014.13 380.326 C 1003.33 374.776 992.532 369.226 981.732 363.666 C 972.082 358.686 962.432 353.696 952.782 348.706 C 952.292 348.456 951.842 348.136 951.302 347.806 C 951.842 337.686 952.372 327.616 952.932 317.256 C 955.732 318.646 958.242 319.856 960.712 321.126 C 967.952 324.856 975.182 328.616 982.422 332.346 C 996.916 339.796 1011.42 347.236 1025.91 354.686 C 1036.21 359.986 1046.5 365.296 1056.8 370.596 C 1073.56 379.226 1090.33 387.836 1107.09 396.466 C 1117.53 401.836 1127.96 407.236 1138.4 412.606 C 1155.02 421.156 1171.65 429.696 1188.27 438.246 C 1196.01 442.226 1203.75 446.216 1211.48 450.226 C 1213.18 451.106 1214.82 452.086 1216.49 453.026 C 1216.56 453.206 1216.56 453.366 1216.56 453.526 Z M 707.292 181.516 C 697.912 240.606 688.582 299.406 679.202 358.506 C 694.102 358.506 708.612 358.506 723.282 358.506 C 723.362 371.156 723.252 383.566 723.342 396.496 C 724.212 395.586 724.662 395.156 725.062 394.686 C 734.532 383.256 744.032 371.846 753.412 360.346 C 754.622 358.866 755.832 358.386 757.652 358.386 C 772.212 358.446 786.762 358.416 801.322 358.416 C 802.172 358.416 803.022 358.416 804.142 358.416 C 802.552 348.256 801.012 338.426 799.452 328.596 C 797.912 318.836 796.352 309.076 794.782 299.326 C 793.202 289.486 791.592 279.656 790.032 269.816 C 788.472 259.976 786.972 250.126 785.422 240.286 C 783.882 230.526 782.282 220.776 780.762 211.006 C 779.242 201.226 777.552 191.476 776.162 181.496 C 790.342 183.566 804.152 185.576 818.382 187.656 C 792.672 130.316 767.182 73.466 741.672 16.556 C 716.122 74.326 690.632 131.976 664.972 189.986 C 679.222 187.136 693.092 184.356 707.292 181.516 Z M 534.652 548.256 C 537.682 549.846 540.702 551.446 543.742 553.016 C 558.002 560.396 572.272 567.746 586.522 575.136 C 595.382 579.736 604.222 584.386 613.072 588.996 C 626.602 596.046 640.132 603.096 653.662 610.136 C 662.302 614.636 670.962 619.106 679.612 623.596 C 693.002 630.566 706.392 637.546 719.772 644.516 C 726.782 648.166 733.812 651.786 740.802 655.486 C 741.902 656.066 742.792 656.226 743.912 655.596 C 746.072 654.386 748.302 653.306 750.502 652.156 C 763.672 645.296 776.842 638.416 790.022 631.566 C 796.822 628.026 803.642 624.526 810.452 620.986 C 823.492 614.206 836.512 607.396 849.542 600.616 C 858.612 595.896 867.702 591.226 876.772 586.506 C 891.722 578.726 906.652 570.916 921.602 563.146 C 930.742 558.396 939.902 553.676 949.052 548.936 C 949.632 548.636 950.152 548.206 951.002 547.636 C 949.472 547.456 948.372 547.256 947.262 547.196 C 943.282 546.996 939.292 546.856 935.312 546.666 C 933.322 546.566 931.342 546.386 929.352 546.236 C 926.522 546.016 923.942 546.466 921.342 547.866 C 911.492 553.166 901.532 558.246 891.612 563.396 C 882.542 568.106 873.452 572.796 864.372 577.486 C 846.842 586.536 829.302 595.576 811.782 604.636 C 806.322 607.456 800.882 610.336 795.422 613.166 C 793.122 614.356 790.792 615.486 788.012 616.876 C 794.802 593.686 801.442 570.986 808.172 547.986 C 805.662 547.986 803.432 547.986 801.202 547.986 C 787.682 547.986 774.172 547.956 760.652 548.026 C 759.142 548.036 758.122 547.626 757.232 546.406 C 755.682 544.276 753.982 542.256 752.342 540.196 C 743.242 528.766 734.142 517.336 725.032 505.906 C 724.632 505.396 724.122 504.976 723.242 504.096 C 723.242 519.066 723.242 533.406 723.242 547.986 C 708.072 547.986 693.142 547.986 677.872 547.986 C 684.412 571.026 691.122 593.686 697.662 616.776 C 696.912 616.476 696.612 616.386 696.342 616.246 C 681.292 608.486 666.242 600.726 651.192 592.976 C 639.832 587.126 628.462 581.286 617.092 575.446 C 599.612 566.466 582.132 557.496 564.662 548.496 C 563.342 547.816 562.042 547.476 560.552 547.486 C 553.592 547.536 546.632 547.496 539.682 547.516 C 538.032 547.526 536.392 547.656 534.742 547.736 C 534.712 547.906 534.682 548.086 534.652 548.256 Z M 944.392 474.526 C 943.862 473.886 943.322 473.256 942.822 472.596 C 938.722 467.186 934.622 461.776 930.532 456.356 C 916.152 437.296 901.762 418.226 887.392 399.156 C 881.572 391.436 875.762 383.716 869.972 375.986 C 869.212 374.976 868.472 374.376 867.052 374.386 C 856.412 374.456 845.782 374.426 835.142 374.436 C 834.542 374.436 833.932 374.576 833.372 374.636 C 833.372 427.096 833.372 479.356 833.372 531.676 C 845.342 531.676 857.142 531.676 869.182 531.676 C 869.182 528.536 869.182 525.516 869.182 522.496 C 869.182 519.456 869.182 516.416 869.182 513.376 C 869.182 510.256 869.182 507.136 869.182 504.016 C 869.182 500.976 869.182 497.936 869.182 494.896 C 869.182 491.856 869.182 488.816 869.182 485.776 C 869.182 482.736 869.182 479.696 869.182 476.656 C 869.182 473.616 869.182 470.576 869.182 467.536 C 869.182 464.496 869.182 461.456 869.182 458.416 C 869.182 455.296 869.182 452.176 869.182 449.056 C 869.182 446.016 869.152 442.976 869.192 439.936 C 869.222 436.966 869.042 433.976 869.352 430.556 C 870.052 431.416 870.462 431.876 870.832 432.376 C 875.892 439.166 880.932 445.966 885.992 452.746 C 894.122 463.626 902.272 474.486 910.392 485.366 C 921.572 500.346 932.752 515.326 943.892 530.326 C 944.702 531.416 945.572 531.806 946.892 531.796 C 957.292 531.746 967.682 531.776 978.082 531.766 C 978.692 531.766 979.292 531.646 979.872 531.586 C 979.872 479.146 979.872 426.886 979.872 374.536 C 968.172 374.536 956.622 374.536 944.822 374.536 C 944.822 407.896 944.822 441.106 944.822 474.316 C 944.692 474.416 944.542 474.476 944.392 474.526 Z M 541.662 374.556 C 529.632 374.556 517.842 374.556 505.922 374.556 C 505.922 426.996 505.922 479.316 505.922 531.676 C 517.882 531.676 529.682 531.676 541.742 531.676 C 541.742 529.006 541.742 526.466 541.742 523.936 C 541.742 521.296 541.742 518.656 541.742 516.016 C 541.742 513.456 541.742 510.896 541.742 508.336 C 541.742 505.696 541.742 503.056 541.742 500.416 C 541.742 497.856 541.742 495.296 541.742 492.736 C 541.742 490.096 541.742 487.456 541.742 484.816 C 541.742 482.256 541.722 479.696 541.742 477.136 C 541.762 474.536 541.652 471.936 541.812 469.436 C 561.462 469.436 580.772 469.436 600.362 469.436 C 600.362 490.276 600.362 510.936 600.362 531.616 C 612.502 531.616 624.372 531.616 636.262 531.616 C 636.262 479.186 636.262 426.936 636.262 374.586 C 624.232 374.586 612.372 374.586 600.262 374.586 C 600.262 394.716 600.262 414.666 600.262 434.746 C 580.692 434.746 561.372 434.746 541.652 434.746 C 541.662 414.576 541.662 394.626 541.662 374.556 Z M 707.262 440.486 C 707.262 418.546 707.262 396.616 707.262 374.556 C 695.202 374.556 683.412 374.556 671.502 374.556 C 671.502 427.006 671.502 479.326 671.502 531.666 C 683.472 531.666 695.262 531.666 707.362 531.666 C 707.362 507.206 707.362 482.896 707.362 458.046 C 708.112 458.896 708.492 459.276 708.822 459.696 C 727.562 483.246 746.312 506.796 765.032 530.356 C 765.762 531.276 766.502 531.836 767.792 531.836 C 781.072 531.786 794.342 531.806 807.622 531.796 C 808.112 531.796 808.602 531.626 809.312 531.506 C 798.262 517.696 787.392 504.116 776.512 490.536 C 765.592 476.896 754.662 463.266 743.722 449.606 C 752.122 439.616 760.392 429.786 768.652 419.956 C 780.872 405.416 793.102 390.886 805.322 376.346 C 805.742 375.846 806.072 375.276 806.672 374.416 C 800.652 374.416 795.142 374.416 789.632 374.416 C 781.232 374.416 772.832 374.446 764.442 374.386 C 763.182 374.376 762.322 374.736 761.582 375.706 C 760.662 376.916 759.702 378.086 758.732 379.256 C 745.592 395.106 732.452 410.966 719.312 426.806 C 715.492 431.416 711.662 436.006 707.832 440.606 C 707.642 440.576 707.452 440.526 707.262 440.486 Z M 858.042 237.056 C 871.362 240.656 884.622 244.236 898.042 247.866 C 895.212 255.526 892.502 262.856 889.802 270.186 C 887.092 277.526 884.402 284.866 881.702 292.206 C 879.002 299.546 876.302 306.886 873.592 314.226 C 870.892 321.566 868.132 328.886 865.482 336.246 C 862.852 343.566 859.972 350.796 857.442 358.426 C 858.612 358.426 859.412 358.426 860.202 358.426 C 865.082 358.426 869.962 358.476 874.842 358.396 C 876.262 358.376 877.162 358.796 878.022 359.956 C 882.642 366.176 887.372 372.316 892.032 378.496 C 903.762 394.056 915.482 409.626 927.222 425.186 C 927.572 425.656 928.022 426.056 928.602 426.686 C 928.762 424.946 928.952 423.526 929.022 422.096 C 929.262 417.076 929.422 412.056 929.692 407.036 C 930.072 400.196 930.542 393.356 930.942 386.526 C 931.172 382.466 931.312 378.396 931.532 374.336 C 931.802 369.406 932.112 364.476 932.382 359.536 C 932.602 355.476 932.782 351.416 932.982 347.346 C 933.262 341.856 933.552 336.366 933.822 330.866 C 934.052 326.166 934.222 321.466 934.482 316.766 C 934.872 309.926 935.332 303.086 935.732 296.256 C 935.962 292.276 936.122 288.296 936.332 284.316 C 936.602 279.226 936.922 274.136 937.172 269.036 C 937.422 264.016 937.562 258.996 937.842 253.976 C 938.212 247.216 938.692 240.456 939.092 233.706 C 939.332 229.566 939.502 225.426 939.712 221.286 C 939.992 215.716 940.272 210.146 940.542 204.566 C 940.772 199.946 940.942 195.326 941.212 190.706 C 941.602 183.866 942.062 177.026 942.462 170.196 C 942.692 166.296 942.842 162.386 943.032 158.486 C 943.142 156.296 943.252 154.106 943.372 151.816 C 941.522 152.886 859.312 235.036 858.042 237.056 Z M 594.032 247.856 C 608.322 244.206 622.342 240.636 636.572 236.996 C 636.182 236.466 636.032 236.186 635.822 235.976 C 607.762 207.956 579.702 179.936 551.642 151.926 C 551.592 151.876 551.492 151.866 551.422 151.876 C 551.342 151.886 551.272 151.926 551.052 152.016 C 551.052 152.656 551.012 153.356 551.062 154.056 C 551.472 160.736 551.912 167.406 552.312 174.086 C 552.532 177.826 552.672 181.566 552.872 185.316 C 553.162 190.806 553.472 196.296 553.762 201.786 C 553.992 206.246 554.172 210.706 554.432 215.166 C 554.822 221.846 555.282 228.516 555.682 235.196 C 555.912 239.016 556.062 242.836 556.262 246.656 C 556.542 252.066 556.852 257.476 557.132 262.886 C 557.362 267.346 557.532 271.806 557.792 276.266 C 558.182 282.946 558.642 289.616 559.042 296.296 C 559.272 300.116 559.402 303.936 559.612 307.756 C 559.882 312.766 560.222 317.776 560.482 322.786 C 560.732 327.646 560.872 332.506 561.152 337.366 C 561.532 343.966 562.002 350.556 562.402 357.156 C 562.642 361.136 562.782 365.116 562.992 369.096 C 563.272 374.426 563.572 379.756 563.852 385.086 C 564.082 389.626 564.272 394.166 564.522 398.706 C 564.812 403.956 565.132 409.206 565.462 414.446 C 565.552 415.866 565.712 417.276 565.852 418.766 C 571.982 418.766 577.932 418.766 584.212 418.766 C 584.212 398.616 584.212 378.606 584.212 358.396 C 601.922 358.396 619.322 358.396 637.102 358.396 C 622.672 321.396 608.392 284.716 594.032 247.856 Z M 489.472 397.086 C 489.472 391.856 489.472 386.786 489.472 381.486 C 488.942 381.686 488.582 381.786 488.252 381.956 C 474.342 389.126 460.432 396.306 446.512 403.476 C 435.652 409.076 424.782 414.656 413.922 420.246 C 402.982 425.876 392.052 431.516 381.112 437.126 C 371.302 442.156 361.482 447.166 351.682 452.196 C 351.222 452.436 350.812 452.786 350.132 453.256 C 396.662 477.206 442.922 501.016 489.462 524.966 C 489.462 519.486 489.462 514.416 489.462 509.196 C 453.342 490.606 417.212 472.006 380.582 453.146 C 417.252 434.266 453.372 415.676 489.472 397.086 Z M 1102.19 454.746 C 1091.69 460.166 1081.18 465.576 1070.67 470.986 C 1056.75 478.146 1042.84 485.306 1028.91 492.456 C 1018.97 497.566 1009.01 502.646 999.066 507.756 C 998.086 508.256 997.156 508.846 996.346 509.316 C 996.346 514.566 996.346 519.566 996.346 524.826 C 997.266 524.406 997.986 524.116 998.676 523.756 C 1005.99 519.996 1013.3 516.216 1020.61 512.446 C 1034.1 505.496 1047.58 498.546 1061.07 491.606 C 1071.93 486.016 1082.79 480.416 1093.66 474.836 C 1106.31 468.346 1118.96 461.876 1131.61 455.386 C 1132.91 454.716 1134.17 453.966 1135.75 453.076 C 1089.09 429.056 1042.84 405.256 996.326 381.316 C 996.326 386.796 996.326 391.876 996.326 397.086 C 1032.45 415.676 1068.56 434.266 1105.1 453.086 C 1103.85 453.806 1103.04 454.306 1102.19 454.746 Z M 809.072 396.906 C 794.182 414.606 779.372 432.216 764.522 449.866 C 779.442 468.486 794.192 486.896 809.252 505.696 C 809.812 501.046 809.622 398.756 809.072 396.906 Z M 810.722 247.896 C 811.142 251.376 811.622 254.836 812.062 258.316 C 812.822 264.236 813.592 270.146 814.292 276.076 C 814.412 277.066 814.752 277.676 815.642 278.106 C 817.362 278.946 819.032 279.876 820.732 280.756 C 828.102 284.566 835.472 288.386 842.852 292.176 C 848.162 294.906 853.492 297.586 859.012 300.396 C 862.292 291.486 865.522 282.706 868.782 273.846 C 849.322 263.826 830.122 253.936 810.432 243.806 C 810.562 245.526 810.582 246.716 810.722 247.896 Z M 633.022 297.226 C 645.162 290.966 657.052 284.846 668.752 278.816 C 670.162 267.456 671.532 256.456 672.942 245.046 C 655.982 253.776 639.482 262.266 622.722 270.896 C 626.212 279.806 629.602 288.466 633.022 297.226 Z M 816.062 288.526 C 815.992 289.126 815.922 289.376 815.952 289.606 C 816.552 294.426 817.202 299.236 817.732 304.056 C 817.862 305.266 818.652 305.616 819.502 306.056 C 828.792 310.856 838.082 315.666 847.372 320.456 C 848.492 321.036 849.642 321.546 851.002 322.196 C 852.632 317.776 854.192 313.536 855.862 309.006 C 842.482 302.136 829.342 295.366 816.062 288.526 Z M 643.722 317.696 C 647.352 315.856 650.972 313.996 654.592 312.136 C 657.572 310.606 660.542 309.056 663.542 307.546 C 664.872 306.876 665.542 305.956 665.622 304.386 C 665.742 302.166 666.192 299.966 666.452 297.756 C 666.752 295.236 666.992 292.706 667.302 289.776 C 656.802 295.176 646.632 300.416 636.352 305.706 C 638.092 310.166 639.742 314.376 641.432 318.716 C 642.302 318.336 643.022 318.046 643.722 317.696 Z" id="path-1" class="selected" fill-opacity="1" fill="#16dcdf"/>
    </g>
  </g>
</svg>