<?xml version="1.0" encoding="utf-8"?>
<svg xmlns="http://www.w3.org/2000/svg" version="1.1" style="" width="1063" height="792" xmlns:bx="https://boxy-svg.com">
  <defs>
    <filter id="gaussian-blur-filter-0" bx:preset="gaussian-blur 1 10" color-interpolation-filters="sRGB" x="-50%" y="-50%" width="200%" height="200%">
      <feGaussianBlur stdDeviation="10 10" edgeMode="none"/>
    </filter>
    <filter id="motion-blur-filter-0" bx:preset="motion-blur 1 18 horizontal" color-interpolation-filters="sRGB" x="-50%" y="-50%" width="200%" height="200%">
      <feGaussianBlur stdDeviation="18 0" edgeMode="none"/>
    </filter>
  </defs>
  <rect id="backgroundrect" width="100%" height="100%" x="0" y="0" fill="none" stroke="none"/>
  <g transform="matrix(1, 0, 0, 1, -399.885986, 62.893646)">
    <g class="currentLayer" style="" transform="matrix(1, 0, 0, 1, 212.755356, -6.649182)">
      <title>Layer 1</title>
      <path d="M 1216.56 453.526 C 1208.32 457.746 1200.07 461.946 1191.83 466.186 C 1176.21 474.226 1160.6 482.286 1144.98 490.336 C 1135.33 495.316 1125.68 500.306 1116.03 505.286 C 1100.41 513.336 1084.79 521.376 1069.17 529.426 C 1059.37 534.476 1049.59 539.546 1039.8 544.606 C 1024.33 552.586 1008.85 560.556 993.372 568.536 C 983.572 573.586 973.782 578.636 963.982 583.686 C 948.652 591.596 933.322 599.506 917.992 607.416 C 908.272 612.436 898.552 617.456 888.822 622.466 C 873.272 630.476 857.722 638.486 842.182 646.506 C 832.312 651.596 822.462 656.696 812.592 661.786 C 797.192 669.736 781.782 677.666 766.382 685.616 C 759.282 689.276 752.192 692.946 745.102 696.626 C 744.492 696.946 743.942 697.396 743.362 697.776 C 743.042 697.776 742.722 697.776 742.402 697.776 C 741.972 697.456 741.572 697.076 741.092 696.836 C 729.372 690.806 717.652 684.786 705.932 678.756 C 690.732 670.926 675.552 663.086 660.362 655.256 C 650.492 650.166 640.632 645.076 630.762 639.986 C 615.362 632.046 599.952 624.106 584.542 616.156 C 574.742 611.106 564.962 606.036 555.162 600.976 C 539.832 593.066 524.492 585.176 509.152 577.266 C 499.282 572.176 489.422 567.076 479.562 561.986 C 464.162 554.036 448.752 546.096 433.352 538.156 C 423.552 533.106 413.762 528.056 403.962 523.006 C 388.482 515.026 373.012 507.046 357.532 499.066 C 347.812 494.046 338.092 489.016 328.362 483.996 C 312.962 476.056 297.542 468.116 282.142 460.176 C 277.812 457.946 273.512 455.666 268.972 453.296 C 269.502 452.906 269.872 452.566 270.302 452.336 C 278.182 448.266 286.062 444.206 293.942 440.146 C 310.702 431.526 327.472 422.906 344.232 414.276 C 353.892 409.306 363.532 404.296 373.192 399.326 C 390.522 390.406 407.862 381.506 425.192 372.596 C 435.922 367.086 446.642 361.566 457.362 356.046 C 473.622 347.676 489.882 339.296 506.152 330.926 C 516.942 325.366 527.742 319.816 538.542 314.266 C 539.372 313.836 540.202 313.396 541.362 312.786 C 541.942 323.136 542.502 333.196 543.072 343.436 C 540.712 344.686 538.342 345.976 535.942 347.206 C 520.662 355.056 505.382 362.886 490.102 370.726 C 479.302 376.276 468.512 381.826 457.712 387.386 C 446.772 393.016 435.842 398.646 424.902 404.276 C 414.252 409.766 403.602 415.256 392.952 420.736 C 382.092 426.336 371.222 431.916 360.352 437.516 C 350.842 442.416 341.332 447.336 331.822 452.246 C 331.352 452.496 330.922 452.826 330.312 453.216 C 332.832 454.536 335.142 455.766 337.482 456.976 C 348.992 462.896 360.502 468.796 372.002 474.726 C 387.122 482.516 402.242 490.326 417.352 498.136 C 427.142 503.196 436.942 508.256 446.732 513.306 C 461.922 521.146 477.112 528.976 492.302 536.816 C 502.102 541.866 511.892 546.916 521.692 551.976 C 536.812 559.776 551.932 567.586 567.042 575.386 C 576.832 580.446 586.632 585.496 596.422 590.556 C 609.132 597.116 621.832 603.666 634.542 610.216 C 646.822 616.546 659.102 622.886 671.382 629.226 C 686.502 637.026 701.622 644.826 716.732 652.636 C 724.892 656.856 733.052 661.076 741.172 665.346 C 742.352 665.966 743.282 665.996 744.482 665.356 C 751.122 661.846 757.802 658.426 764.482 654.986 C 780.172 646.896 795.862 638.806 811.552 630.716 C 821.202 625.736 830.852 620.746 840.502 615.766 C 855.762 607.896 871.032 600.026 886.292 592.156 C 895.942 587.176 905.592 582.196 915.252 577.206 C 930.582 569.296 945.912 561.386 961.242 553.466 C 970.962 548.446 980.692 543.426 990.412 538.406 C 1005.61 530.566 1020.8 522.736 1035.99 514.896 C 1045.71 509.876 1055.43 504.856 1065.16 499.836 C 1080.42 491.956 1095.68 484.086 1110.94 476.216 C 1120.66 471.196 1130.39 466.186 1140.11 461.156 C 1145.14 458.556 1150.16 455.936 1155.52 453.156 C 1153.41 452.026 1151.55 450.996 1149.67 450.026 C 1137.02 443.526 1124.37 437.046 1111.72 430.546 C 1100.85 424.956 1089.99 419.366 1079.12 413.766 C 1068.25 408.176 1057.39 402.576 1046.52 396.986 C 1035.72 391.426 1024.93 385.876 1014.13 380.326 C 1003.33 374.776 992.532 369.226 981.732 363.666 C 972.082 358.686 962.432 353.696 952.782 348.706 C 952.292 348.456 951.842 348.136 951.302 347.806 C 951.842 337.686 952.372 327.616 952.932 317.256 C 955.732 318.646 958.242 319.856 960.712 321.126 C 967.952 324.856 975.182 328.616 982.422 332.346 C 996.916 339.796 1011.42 347.236 1025.91 354.686 C 1036.21 359.986 1046.5 365.296 1056.8 370.596 C 1073.56 379.226 1090.33 387.836 1107.09 396.466 C 1117.53 401.836 1127.96 407.236 1138.4 412.606 C 1155.02 421.156 1171.65 429.696 1188.27 438.246 C 1196.01 442.226 1203.75 446.216 1211.48 450.226 C 1213.18 451.106 1214.82 452.086 1216.49 453.026 C 1216.56 453.206 1216.56 453.366 1216.56 453.526 Z M 707.292 181.516 C 697.912 240.606 688.582 299.406 679.202 358.506 C 694.102 358.506 708.612 358.506 723.282 358.506 C 723.362 371.156 723.252 383.566 723.342 396.496 C 724.212 395.586 724.662 395.156 725.062 394.686 C 734.532 383.256 744.032 371.846 753.412 360.346 C 754.622 358.866 755.832 358.386 757.652 358.386 C 772.212 358.446 786.762 358.416 801.322 358.416 C 802.172 358.416 803.022 358.416 804.142 358.416 C 802.552 348.256 801.012 338.426 799.452 328.596 C 797.912 318.836 796.352 309.076 794.782 299.326 C 793.202 289.486 791.592 279.656 790.032 269.816 C 788.472 259.976 786.972 250.126 785.422 240.286 C 783.882 230.526 782.282 220.776 780.762 211.006 C 779.242 201.226 777.552 191.476 776.162 181.496 C 790.342 183.566 804.152 185.576 818.382 187.656 C 792.672 130.316 767.182 73.466 741.672 16.556 C 716.122 74.326 690.632 131.976 664.972 189.986 C 679.222 187.136 693.092 184.356 707.292 181.516 Z M 534.652 548.256 C 537.682 549.846 540.702 551.446 543.742 553.016 C 558.002 560.396 572.272 567.746 586.522 575.136 C 595.382 579.736 604.222 584.386 613.072 588.996 C 626.602 596.046 640.132 603.096 653.662 610.136 C 662.302 614.636 670.962 619.106 679.612 623.596 C 693.002 630.566 706.392 637.546 719.772 644.516 C 726.782 648.166 733.812 651.786 740.802 655.486 C 741.902 656.066 742.792 656.226 743.912 655.596 C 746.072 654.386 748.302 653.306 750.502 652.156 C 763.672 645.296 776.842 638.416 790.022 631.566 C 796.822 628.026 803.642 624.526 810.452 620.986 C 823.492 614.206 836.512 607.396 849.542 600.616 C 858.612 595.896 867.702 591.226 876.772 586.506 C 891.722 578.726 906.652 570.916 921.602 563.146 C 930.742 558.396 939.902 553.676 949.052 548.936 C 949.632 548.636 950.152 548.206 951.002 547.636 C 949.472 547.456 948.372 547.256 947.262 547.196 C 943.282 546.996 939.292 546.856 935.312 546.666 C 933.322 546.566 931.342 546.386 929.352 546.236 C 926.522 546.016 923.942 546.466 921.342 547.866 C 911.492 553.166 901.532 558.246 891.612 563.396 C 882.542 568.106 873.452 572.796 864.372 577.486 C 846.842 586.536 829.302 595.576 811.782 604.636 C 806.322 607.456 800.882 610.336 795.422 613.166 C 793.122 614.356 790.792 615.486 788.012 616.876 C 794.802 593.686 801.442 570.986 808.172 547.986 C 805.662 547.986 803.432 547.986 801.202 547.986 C 787.682 547.986 774.172 547.956 760.652 548.026 C 759.142 548.036 758.122 547.626 757.232 546.406 C 755.682 544.276 753.982 542.256 752.342 540.196 C 743.242 528.766 734.142 517.336 725.032 505.906 C 724.632 505.396 724.122 504.976 723.242 504.096 C 723.242 519.066 723.242 533.406 723.242 547.986 C 708.072 547.986 693.142 547.986 677.872 547.986 C 684.412 571.026 691.122 593.686 697.662 616.776 C 696.912 616.476 696.612 616.386 696.342 616.246 C 681.292 608.486 666.242 600.726 651.192 592.976 C 639.832 587.126 628.462 581.286 617.092 575.446 C 599.612 566.466 582.132 557.496 564.662 548.496 C 563.342 547.816 562.042 547.476 560.552 547.486 C 553.592 547.536 546.632 547.496 539.682 547.516 C 538.032 547.526 536.392 547.656 534.742 547.736 C 534.712 547.906 534.682 548.086 534.652 548.256 Z M 944.392 474.526 C 943.862 473.886 943.322 473.256 942.822 472.596 C 938.722 467.186 934.622 461.776 930.532 456.356 C 916.152 437.296 901.762 418.226 887.392 399.156 C 881.572 391.436 875.762 383.716 869.972 375.986 C 869.212 374.976 868.472 374.376 867.052 374.386 C 856.412 374.456 845.782 374.426 835.142 374.436 C 834.542 374.436 833.932 374.576 833.372 374.636 C 833.372 427.096 833.372 479.356 833.372 531.676 C 845.342 531.676 857.142 531.676 869.182 531.676 C 869.182 528.536 869.182 525.516 869.182 522.496 C 869.182 519.456 869.182 516.416 869.182 513.376 C 869.182 510.256 869.182 507.136 869.182 504.016 C 869.182 500.976 869.182 497.936 869.182 494.896 C 869.182 491.856 869.182 488.816 869.182 485.776 C 869.182 482.736 869.182 479.696 869.182 476.656 C 869.182 473.616 869.182 470.576 869.182 467.536 C 869.182 464.496 869.182 461.456 869.182 458.416 C 869.182 455.296 869.182 452.176 869.182 449.056 C 869.182 446.016 869.152 442.976 869.192 439.936 C 869.222 436.966 869.042 433.976 869.352 430.556 C 870.052 431.416 870.462 431.876 870.832 432.376 C 875.892 439.166 880.932 445.966 885.992 452.746 C 894.122 463.626 902.272 474.486 910.392 485.366 C 921.572 500.346 932.752 515.326 943.892 530.326 C 944.702 531.416 945.572 531.806 946.892 531.796 C 957.292 531.746 967.682 531.776 978.082 531.766 C 978.692 531.766 979.292 531.646 979.872 531.586 C 979.872 479.146 979.872 426.886 979.872 374.536 C 968.172 374.536 956.622 374.536 944.822 374.536 C 944.822 407.896 944.822 441.106 944.822 474.316 C 944.692 474.416 944.542 474.476 944.392 474.526 Z M 541.662 374.556 C 529.632 374.556 517.842 374.556 505.922 374.556 C 505.922 426.996 505.922 479.316 505.922 531.676 C 517.882 531.676 529.682 531.676 541.742 531.676 C 541.742 529.006 541.742 526.466 541.742 523.936 C 541.742 521.296 541.742 518.656 541.742 516.016 C 541.742 513.456 541.742 510.896 541.742 508.336 C 541.742 505.696 541.742 503.056 541.742 500.416 C 541.742 497.856 541.742 495.296 541.742 492.736 C 541.742 490.096 541.742 487.456 541.742 484.816 C 541.742 482.256 541.722 479.696 541.742 477.136 C 541.762 474.536 541.652 471.936 541.812 469.436 C 561.462 469.436 580.772 469.436 600.362 469.436 C 600.362 490.276 600.362 510.936 600.362 531.616 C 612.502 531.616 624.372 531.616 636.262 531.616 C 636.262 479.186 636.262 426.936 636.262 374.586 C 624.232 374.586 612.372 374.586 600.262 374.586 C 600.262 394.716 600.262 414.666 600.262 434.746 C 580.692 434.746 561.372 434.746 541.652 434.746 C 541.662 414.576 541.662 394.626 541.662 374.556 Z M 707.262 440.486 C 707.262 418.546 707.262 396.616 707.262 374.556 C 695.202 374.556 683.412 374.556 671.502 374.556 C 671.502 427.006 671.502 479.326 671.502 531.666 C 683.472 531.666 695.262 531.666 707.362 531.666 C 707.362 507.206 707.362 482.896 707.362 458.046 C 708.112 458.896 708.492 459.276 708.822 459.696 C 727.562 483.246 746.312 506.796 765.032 530.356 C 765.762 531.276 766.502 531.836 767.792 531.836 C 781.072 531.786 794.342 531.806 807.622 531.796 C 808.112 531.796 808.602 531.626 809.312 531.506 C 798.262 517.696 787.392 504.116 776.512 490.536 C 765.592 476.896 754.662 463.266 743.722 449.606 C 752.122 439.616 760.392 429.786 768.652 419.956 C 780.872 405.416 793.102 390.886 805.322 376.346 C 805.742 375.846 806.072 375.276 806.672 374.416 C 800.652 374.416 795.142 374.416 789.632 374.416 C 781.232 374.416 772.832 374.446 764.442 374.386 C 763.182 374.376 762.322 374.736 761.582 375.706 C 760.662 376.916 759.702 378.086 758.732 379.256 C 745.592 395.106 732.452 410.966 719.312 426.806 C 715.492 431.416 711.662 436.006 707.832 440.606 C 707.642 440.576 707.452 440.526 707.262 440.486 Z M 858.042 237.056 C 871.362 240.656 884.622 244.236 898.042 247.866 C 895.212 255.526 892.502 262.856 889.802 270.186 C 887.092 277.526 884.402 284.866 881.702 292.206 C 879.002 299.546 876.302 306.886 873.592 314.226 C 870.892 321.566 868.132 328.886 865.482 336.246 C 862.852 343.566 859.972 350.796 857.442 358.426 C 858.612 358.426 859.412 358.426 860.202 358.426 C 865.082 358.426 869.962 358.476 874.842 358.396 C 876.262 358.376 877.162 358.796 878.022 359.956 C 882.642 366.176 887.372 372.316 892.032 378.496 C 903.762 394.056 915.482 409.626 927.222 425.186 C 927.572 425.656 928.022 426.056 928.602 426.686 C 928.762 424.946 928.952 423.526 929.022 422.096 C 929.262 417.076 929.422 412.056 929.692 407.036 C 930.072 400.196 930.542 393.356 930.942 386.526 C 931.172 382.466 931.312 378.396 931.532 374.336 C 931.802 369.406 932.112 364.476 932.382 359.536 C 932.602 355.476 932.782 351.416 932.982 347.346 C 933.262 341.856 933.552 336.366 933.822 330.866 C 934.052 326.166 934.222 321.466 934.482 316.766 C 934.872 309.926 935.332 303.086 935.732 296.256 C 935.962 292.276 936.122 288.296 936.332 284.316 C 936.602 279.226 936.922 274.136 937.172 269.036 C 937.422 264.016 937.562 258.996 937.842 253.976 C 938.212 247.216 938.692 240.456 939.092 233.706 C 939.332 229.566 939.502 225.426 939.712 221.286 C 939.992 215.716 940.272 210.146 940.542 204.566 C 940.772 199.946 940.942 195.326 941.212 190.706 C 941.602 183.866 942.062 177.026 942.462 170.196 C 942.692 166.296 942.842 162.386 943.032 158.486 C 943.142 156.296 943.252 154.106 943.372 151.816 C 941.522 152.886 859.312 235.036 858.042 237.056 Z M 594.032 247.856 C 608.322 244.206 622.342 240.636 636.572 236.996 C 636.182 236.466 636.032 236.186 635.822 235.976 C 607.762 207.956 579.702 179.936 551.642 151.926 C 551.592 151.876 551.492 151.866 551.422 151.876 C 551.342 151.886 551.272 151.926 551.052 152.016 C 551.052 152.656 551.012 153.356 551.062 154.056 C 551.472 160.736 551.912 167.406 552.312 174.086 C 552.532 177.826 552.672 181.566 552.872 185.316 C 553.162 190.806 553.472 196.296 553.762 201.786 C 553.992 206.246 554.172 210.706 554.432 215.166 C 554.822 221.846 555.282 228.516 555.682 235.196 C 555.912 239.016 556.062 242.836 556.262 246.656 C 556.542 252.066 556.852 257.476 557.132 262.886 C 557.362 267.346 557.532 271.806 557.792 276.266 C 558.182 282.946 558.642 289.616 559.042 296.296 C 559.272 300.116 559.402 303.936 559.612 307.756 C 559.882 312.766 560.222 317.776 560.482 322.786 C 560.732 327.646 560.872 332.506 561.152 337.366 C 561.532 343.966 562.002 350.556 562.402 357.156 C 562.642 361.136 562.782 365.116 562.992 369.096 C 563.272 374.426 563.572 379.756 563.852 385.086 C 564.082 389.626 564.272 394.166 564.522 398.706 C 564.812 403.956 565.132 409.206 565.462 414.446 C 565.552 415.866 565.712 417.276 565.852 418.766 C 571.982 418.766 577.932 418.766 584.212 418.766 C 584.212 398.616 584.212 378.606 584.212 358.396 C 601.922 358.396 619.322 358.396 637.102 358.396 C 622.672 321.396 608.392 284.716 594.032 247.856 Z M 489.472 397.086 C 489.472 391.856 489.472 386.786 489.472 381.486 C 488.942 381.686 488.582 381.786 488.252 381.956 C 474.342 389.126 460.432 396.306 446.512 403.476 C 435.652 409.076 424.782 414.656 413.922 420.246 C 402.982 425.876 392.052 431.516 381.112 437.126 C 371.302 442.156 361.482 447.166 351.682 452.196 C 351.222 452.436 350.812 452.786 350.132 453.256 C 396.662 477.206 442.922 501.016 489.462 524.966 C 489.462 519.486 489.462 514.416 489.462 509.196 C 453.342 490.606 417.212 472.006 380.582 453.146 C 417.252 434.266 453.372 415.676 489.472 397.086 Z M 1102.19 454.746 C 1091.69 460.166 1081.18 465.576 1070.67 470.986 C 1056.75 478.146 1042.84 485.306 1028.91 492.456 C 1018.97 497.566 1009.01 502.646 999.066 507.756 C 998.086 508.256 997.156 508.846 996.346 509.316 C 996.346 514.566 996.346 519.566 996.346 524.826 C 997.266 524.406 997.986 524.116 998.676 523.756 C 1005.99 519.996 1013.3 516.216 1020.61 512.446 C 1034.1 505.496 1047.58 498.546 1061.07 491.606 C 1071.93 486.016 1082.79 480.416 1093.66 474.836 C 1106.31 468.346 1118.96 461.876 1131.61 455.386 C 1132.91 454.716 1134.17 453.966 1135.75 453.076 C 1089.09 429.056 1042.84 405.256 996.326 381.316 C 996.326 386.796 996.326 391.876 996.326 397.086 C 1032.45 415.676 1068.56 434.266 1105.1 453.086 C 1103.85 453.806 1103.04 454.306 1102.19 454.746 Z M 809.072 396.906 C 794.182 414.606 779.372 432.216 764.522 449.866 C 779.442 468.486 794.192 486.896 809.252 505.696 C 809.812 501.046 809.622 398.756 809.072 396.906 Z M 810.722 247.896 C 811.142 251.376 811.622 254.836 812.062 258.316 C 812.822 264.236 813.592 270.146 814.292 276.076 C 814.412 277.066 814.752 277.676 815.642 278.106 C 817.362 278.946 819.032 279.876 820.732 280.756 C 828.102 284.566 835.472 288.386 842.852 292.176 C 848.162 294.906 853.492 297.586 859.012 300.396 C 862.292 291.486 865.522 282.706 868.782 273.846 C 849.322 263.826 830.122 253.936 810.432 243.806 C 810.562 245.526 810.582 246.716 810.722 247.896 Z M 633.022 297.226 C 645.162 290.966 657.052 284.846 668.752 278.816 C 670.162 267.456 671.532 256.456 672.942 245.046 C 655.982 253.776 639.482 262.266 622.722 270.896 C 626.212 279.806 629.602 288.466 633.022 297.226 Z M 816.062 288.526 C 815.992 289.126 815.922 289.376 815.952 289.606 C 816.552 294.426 817.202 299.236 817.732 304.056 C 817.862 305.266 818.652 305.616 819.502 306.056 C 828.792 310.856 838.082 315.666 847.372 320.456 C 848.492 321.036 849.642 321.546 851.002 322.196 C 852.632 317.776 854.192 313.536 855.862 309.006 C 842.482 302.136 829.342 295.366 816.062 288.526 Z M 643.722 317.696 C 647.352 315.856 650.972 313.996 654.592 312.136 C 657.572 310.606 660.542 309.056 663.542 307.546 C 664.872 306.876 665.542 305.956 665.622 304.386 C 665.742 302.166 666.192 299.966 666.452 297.756 C 666.752 295.236 666.992 292.706 667.302 289.776 C 656.802 295.176 646.632 300.416 636.352 305.706 C 638.092 310.166 639.742 314.376 641.432 318.716 C 642.302 318.336 643.022 318.046 643.722 317.696 Z" id="svg_1" class="selected" fill-opacity="1" fill="#128d94"/>
    </g>
    <g>
      <g class="currentLayer" style="filter: url(&quot;#gaussian-blur-filter-0&quot;) url(&quot;#motion-blur-filter-0&quot;); mix-blend-mode: lighten; opacity: 0.51;" transform="matrix(1.020028, 0, 0, 1.021594, 359.176727, -83.603348)">
        <title>Layer 1</title>
        <g>
          <path d="M 1057.67 527.203 C 1049.43 531.423 1041.18 535.623 1032.94 539.863 C 1017.32 547.903 1001.71 555.963 986.093 564.013 C 976.443 568.993 966.793 573.983 957.143 578.963 C 941.523 587.013 925.903 595.053 910.283 603.103 C 900.483 608.153 890.703 613.223 880.913 618.283 C 865.443 626.263 849.963 634.233 834.485 642.213 C 824.685 647.263 814.895 652.313 805.095 657.363 C 789.765 665.273 774.435 673.183 759.105 681.093 C 749.385 686.113 739.665 691.133 729.935 696.143 C 714.385 704.153 698.835 712.163 683.295 720.183 C 673.425 725.273 663.575 730.373 653.705 735.463 C 638.305 743.413 622.895 751.343 607.495 759.293 C 600.395 762.953 593.305 766.623 586.215 770.303 C 585.605 770.623 585.055 771.073 584.475 771.453 C 584.155 771.453 583.835 771.453 583.515 771.453 C 583.085 771.133 582.685 770.753 582.205 770.513 C 570.485 764.483 558.765 758.463 547.045 752.433 C 531.845 744.603 516.665 736.763 501.475 728.933 C 491.605 723.843 481.745 718.753 471.875 713.663 C 456.475 705.723 441.065 697.783 425.655 689.833 C 415.855 684.783 406.075 679.713 396.275 674.653 C 380.945 666.743 365.605 658.853 350.265 650.943 C 340.395 645.853 330.535 640.753 320.675 635.663 C 305.275 627.713 289.865 619.773 274.465 611.833 C 264.665 606.783 254.875 601.733 245.075 596.683 C 229.595 588.703 214.125 580.723 198.645 572.743 C 188.925 567.723 179.205 562.693 169.475 557.673 C 154.075 549.733 138.655 541.793 123.255 533.853 C 118.925 531.623 114.625 529.343 110.085 526.973 C 110.615 526.583 110.985 526.243 111.415 526.013 C 119.295 521.943 127.175 517.883 135.055 513.823 C 151.815 505.203 168.585 496.583 185.345 487.953 C 195.005 482.983 204.645 477.973 214.305 473.003 C 231.635 464.083 248.975 455.183 266.305 446.273 C 277.035 440.763 287.755 435.243 298.475 429.723 C 314.735 421.353 330.995 412.973 347.265 404.603 C 358.055 399.043 368.855 393.493 379.655 387.943 C 380.485 387.513 381.315 387.073 382.475 386.463 C 383.055 396.813 383.615 406.873 384.185 417.113 C 381.825 418.363 379.455 419.653 377.055 420.883 C 361.775 428.733 346.495 436.563 331.215 444.403 C 320.415 449.953 309.625 455.503 298.825 461.063 C 287.885 466.693 276.955 472.323 266.015 477.953 C 255.365 483.443 244.715 488.933 234.065 494.413 C 223.205 500.013 212.335 505.593 201.465 511.193 C 191.955 516.093 182.445 521.013 172.935 525.923 C 172.465 526.173 172.035 526.503 171.425 526.893 C 173.945 528.213 176.255 529.443 178.595 530.653 C 190.105 536.573 201.615 542.473 213.115 548.403 C 228.235 556.193 243.355 564.003 258.465 571.813 C 268.255 576.873 278.055 581.933 287.845 586.983 C 303.035 594.823 318.225 602.653 333.415 610.493 C 343.215 615.543 353.005 620.593 362.805 625.653 C 377.925 633.453 393.045 641.263 408.155 649.063 C 417.945 654.123 427.745 659.173 437.535 664.233 C 450.245 670.793 462.945 677.343 475.655 683.893 C 487.935 690.223 500.215 696.563 512.495 702.903 C 527.615 710.703 542.735 718.503 557.845 726.313 C 566.005 730.533 574.165 734.753 582.285 739.023 C 583.465 739.643 584.395 739.673 585.595 739.033 C 592.235 735.523 598.915 732.103 605.595 728.663 C 621.285 720.573 636.975 712.483 652.665 704.393 C 662.315 699.413 671.965 694.423 681.615 689.443 C 696.875 681.573 712.145 673.703 727.405 665.833 C 737.055 660.853 746.705 655.873 756.365 650.883 C 771.695 642.973 787.025 635.063 802.355 627.143 C 812.075 622.123 821.805 617.103 831.525 612.083 C 846.723 604.243 861.913 596.413 877.103 588.573 C 886.823 583.553 896.543 578.533 906.273 573.513 C 921.533 565.633 936.793 557.763 952.053 549.893 C 961.773 544.873 971.503 539.863 981.223 534.833 C 986.253 532.233 991.273 529.613 996.633 526.833 C 994.523 525.703 992.663 524.673 990.783 523.703 C 978.133 517.203 965.483 510.723 952.833 504.223 C 941.963 498.633 931.103 493.043 920.233 487.443 C 909.363 481.853 898.503 476.253 887.633 470.663 C 876.833 465.103 866.043 459.553 855.243 454.003 C 844.443 448.453 833.645 442.903 822.845 437.343 C 813.195 432.363 803.545 427.373 793.895 422.383 C 793.405 422.133 792.955 421.813 792.415 421.483 C 792.955 411.363 793.485 401.293 794.045 390.933 C 796.845 392.323 799.355 393.533 801.825 394.803 C 809.065 398.533 816.295 402.293 823.535 406.023 C 838.029 413.473 852.533 420.913 867.023 428.363 C 877.323 433.663 887.613 438.973 897.913 444.273 C 914.673 452.903 931.443 461.513 948.203 470.143 C 958.643 475.513 969.073 480.913 979.513 486.283 C 996.133 494.833 1012.76 503.373 1029.38 511.923 C 1037.12 515.903 1044.86 519.893 1052.59 523.903 C 1054.29 524.783 1055.93 525.763 1057.6 526.703 C 1057.67 526.883 1057.67 527.043 1057.67 527.203 Z M 548.405 255.193 C 539.025 314.283 529.695 373.083 520.315 432.183 C 535.215 432.183 549.725 432.183 564.395 432.183 C 564.475 444.833 564.365 457.243 564.455 470.173 C 565.325 469.263 565.775 468.833 566.175 468.363 C 575.645 456.933 585.145 445.523 594.525 434.023 C 595.735 432.543 596.945 432.063 598.765 432.063 C 613.325 432.123 627.875 432.093 642.435 432.093 C 643.285 432.093 644.135 432.093 645.255 432.093 C 643.665 421.933 642.125 412.103 640.565 402.273 C 639.025 392.513 637.465 382.753 635.895 373.003 C 634.315 363.163 632.705 353.333 631.145 343.493 C 629.585 333.653 628.085 323.803 626.535 313.963 C 624.995 304.203 623.395 294.453 621.875 284.683 C 620.355 274.903 618.665 265.153 617.275 255.173 C 631.455 257.243 645.265 259.253 659.495 261.333 C 633.785 203.993 608.295 147.143 582.785 90.233 C 557.235 148.003 531.745 205.653 506.085 263.663 C 520.335 260.813 534.205 258.033 548.405 255.193 Z M 375.765 621.933 C 378.795 623.523 381.815 625.123 384.855 626.693 C 399.115 634.073 413.385 641.423 427.635 648.813 C 436.495 653.413 445.335 658.063 454.185 662.673 C 467.715 669.723 481.245 676.773 494.775 683.813 C 503.415 688.313 512.075 692.783 520.725 697.273 C 534.115 704.243 547.505 711.223 560.885 718.193 C 567.895 721.843 574.925 725.463 581.915 729.163 C 583.015 729.743 583.905 729.903 585.025 729.273 C 587.185 728.063 589.415 726.983 591.615 725.833 C 604.785 718.973 617.955 712.093 631.135 705.243 C 637.935 701.703 644.755 698.203 651.565 694.663 C 664.605 687.883 677.625 681.073 690.655 674.293 C 699.725 669.573 708.815 664.903 717.885 660.183 C 732.835 652.403 747.765 644.593 762.715 636.823 C 771.855 632.073 781.015 627.353 790.165 622.613 C 790.745 622.313 791.265 621.883 792.115 621.313 C 790.585 621.133 789.485 620.933 788.375 620.873 C 784.395 620.673 780.405 620.533 776.425 620.343 C 774.435 620.243 772.455 620.063 770.465 619.913 C 767.635 619.693 765.055 620.143 762.455 621.543 C 752.605 626.843 742.645 631.923 732.725 637.073 C 723.655 641.783 714.565 646.473 705.485 651.163 C 687.955 660.213 670.415 669.253 652.895 678.313 C 647.435 681.133 641.995 684.013 636.535 686.843 C 634.235 688.033 631.905 689.163 629.125 690.553 C 635.915 667.363 642.555 644.663 649.285 621.663 C 646.775 621.663 644.545 621.663 642.315 621.663 C 628.795 621.663 615.285 621.633 601.765 621.703 C 600.255 621.713 599.235 621.303 598.345 620.083 C 596.795 617.953 595.095 615.933 593.455 613.873 C 584.355 602.443 575.255 591.013 566.145 579.583 C 565.745 579.073 565.235 578.653 564.355 577.773 C 564.355 592.743 564.355 607.083 564.355 621.663 C 549.185 621.663 534.255 621.663 518.985 621.663 C 525.525 644.703 532.235 667.363 538.775 690.453 C 538.025 690.153 537.725 690.063 537.455 689.923 C 522.405 682.163 507.355 674.403 492.305 666.653 C 480.945 660.803 469.575 654.963 458.205 649.123 C 440.725 640.143 423.245 631.173 405.775 622.173 C 404.455 621.493 403.155 621.153 401.665 621.163 C 394.705 621.213 387.745 621.173 380.795 621.193 C 379.145 621.203 377.505 621.333 375.855 621.413 C 375.825 621.583 375.795 621.763 375.765 621.933 Z M 785.505 548.203 C 784.975 547.563 784.435 546.933 783.935 546.273 C 779.835 540.863 775.735 535.453 771.645 530.033 C 757.265 510.973 742.875 491.903 728.505 472.833 C 722.685 465.113 716.875 457.393 711.085 449.663 C 710.325 448.653 709.585 448.053 708.165 448.063 C 697.525 448.133 686.895 448.103 676.255 448.113 C 675.655 448.113 675.045 448.253 674.485 448.313 C 674.485 500.773 674.485 553.033 674.485 605.353 C 686.455 605.353 698.255 605.353 710.295 605.353 C 710.295 602.213 710.295 599.193 710.295 596.173 C 710.295 593.133 710.295 590.093 710.295 587.053 C 710.295 583.933 710.295 580.813 710.295 577.693 C 710.295 574.653 710.295 571.613 710.295 568.573 C 710.295 565.533 710.295 562.493 710.295 559.453 C 710.295 556.413 710.295 553.373 710.295 550.333 C 710.295 547.293 710.295 544.253 710.295 541.213 C 710.295 538.173 710.295 535.133 710.295 532.093 C 710.295 528.973 710.295 525.853 710.295 522.733 C 710.295 519.693 710.265 516.653 710.305 513.613 C 710.335 510.643 710.155 507.653 710.465 504.233 C 711.165 505.093 711.575 505.553 711.945 506.053 C 717.005 512.843 722.045 519.643 727.105 526.423 C 735.235 537.303 743.385 548.163 751.505 559.043 C 762.685 574.023 773.865 589.003 785.005 604.003 C 785.815 605.093 786.685 605.483 788.005 605.473 C 798.405 605.423 808.795 605.453 819.195 605.443 C 819.805 605.443 820.405 605.323 820.985 605.263 C 820.985 552.823 820.985 500.563 820.985 448.213 C 809.285 448.213 797.735 448.213 785.935 448.213 C 785.935 481.573 785.935 514.783 785.935 547.993 C 785.805 548.093 785.655 548.153 785.505 548.203 Z M 382.775 448.233 C 370.745 448.233 358.955 448.233 347.035 448.233 C 347.035 500.673 347.035 552.993 347.035 605.353 C 358.995 605.353 370.795 605.353 382.855 605.353 C 382.855 602.683 382.855 600.143 382.855 597.613 C 382.855 594.973 382.855 592.333 382.855 589.693 C 382.855 587.133 382.855 584.573 382.855 582.013 C 382.855 579.373 382.855 576.733 382.855 574.093 C 382.855 571.533 382.855 568.973 382.855 566.413 C 382.855 563.773 382.855 561.133 382.855 558.493 C 382.855 555.933 382.835 553.373 382.855 550.813 C 382.875 548.213 382.765 545.613 382.925 543.113 C 402.575 543.113 421.885 543.113 441.475 543.113 C 441.475 563.953 441.475 584.613 441.475 605.293 C 453.615 605.293 465.485 605.293 477.375 605.293 C 477.375 552.863 477.375 500.613 477.375 448.263 C 465.345 448.263 453.485 448.263 441.375 448.263 C 441.375 468.393 441.375 488.343 441.375 508.423 C 421.805 508.423 402.485 508.423 382.765 508.423 C 382.775 488.253 382.775 468.303 382.775 448.233 Z M 548.375 514.163 C 548.375 492.223 548.375 470.293 548.375 448.233 C 536.315 448.233 524.525 448.233 512.615 448.233 C 512.615 500.683 512.615 553.003 512.615 605.343 C 524.585 605.343 536.375 605.343 548.475 605.343 C 548.475 580.883 548.475 556.573 548.475 531.723 C 549.225 532.573 549.605 532.953 549.935 533.373 C 568.675 556.923 587.425 580.473 606.145 604.033 C 606.875 604.953 607.615 605.513 608.905 605.513 C 622.185 605.463 635.455 605.483 648.735 605.473 C 649.225 605.473 649.715 605.303 650.425 605.183 C 639.375 591.373 628.505 577.793 617.625 564.213 C 606.705 550.573 595.775 536.943 584.835 523.283 C 593.235 513.293 601.505 503.463 609.765 493.633 C 621.985 479.093 634.215 464.563 646.435 450.023 C 646.855 449.523 647.185 448.953 647.785 448.093 C 641.765 448.093 636.255 448.093 630.745 448.093 C 622.345 448.093 613.945 448.123 605.555 448.063 C 604.295 448.053 603.435 448.413 602.695 449.383 C 601.775 450.593 600.815 451.763 599.845 452.933 C 586.705 468.783 573.565 484.643 560.425 500.483 C 556.605 505.093 552.775 509.683 548.945 514.283 C 548.755 514.253 548.565 514.203 548.375 514.163 Z M 699.155 310.733 C 712.475 314.333 725.735 317.913 739.155 321.543 C 736.325 329.203 733.615 336.533 730.915 343.863 C 728.205 351.203 725.515 358.543 722.815 365.883 C 720.115 373.223 717.415 380.563 714.705 387.903 C 712.005 395.243 709.245 402.563 706.595 409.923 C 703.965 417.243 701.085 424.473 698.555 432.103 C 699.725 432.103 700.525 432.103 701.315 432.103 C 706.195 432.103 711.075 432.153 715.955 432.073 C 717.375 432.053 718.275 432.473 719.135 433.633 C 723.755 439.853 728.485 445.993 733.145 452.173 C 744.875 467.733 756.595 483.303 768.335 498.863 C 768.685 499.333 769.135 499.733 769.715 500.363 C 769.875 498.623 770.065 497.203 770.135 495.773 C 770.375 490.753 770.535 485.733 770.805 480.713 C 771.185 473.873 771.655 467.033 772.055 460.203 C 772.285 456.143 772.425 452.073 772.645 448.013 C 772.915 443.083 773.225 438.153 773.495 433.213 C 773.715 429.153 773.895 425.093 774.095 421.023 C 774.375 415.533 774.665 410.043 774.935 404.543 C 775.165 399.843 775.335 395.143 775.595 390.443 C 775.985 383.603 776.445 376.763 776.845 369.933 C 777.075 365.953 777.235 361.973 777.445 357.993 C 777.715 352.903 778.035 347.813 778.285 342.713 C 778.535 337.693 778.675 332.673 778.955 327.653 C 779.325 320.893 779.805 314.133 780.205 307.383 C 780.445 303.243 780.615 299.103 780.825 294.963 C 781.105 289.393 781.385 283.823 781.655 278.243 C 781.885 273.623 782.055 269.003 782.325 264.383 C 782.715 257.543 783.175 250.703 783.575 243.873 C 783.805 239.973 783.955 236.063 784.145 232.163 C 784.255 229.973 784.365 227.783 784.485 225.493 C 782.635 226.563 700.425 308.713 699.155 310.733 Z M 435.145 321.533 C 449.435 317.883 463.455 314.313 477.685 310.673 C 477.295 310.143 477.145 309.863 476.935 309.653 C 448.875 281.633 420.815 253.613 392.755 225.603 C 392.705 225.553 392.605 225.543 392.535 225.553 C 392.455 225.563 392.385 225.603 392.165 225.693 C 392.165 226.333 392.125 227.033 392.175 227.733 C 392.585 234.413 393.025 241.083 393.425 247.763 C 393.645 251.503 393.785 255.243 393.985 258.993 C 394.275 264.483 394.585 269.973 394.875 275.463 C 395.105 279.923 395.285 284.383 395.545 288.843 C 395.935 295.523 396.395 302.193 396.795 308.873 C 397.025 312.693 397.175 316.513 397.375 320.333 C 397.655 325.743 397.965 331.153 398.245 336.563 C 398.475 341.023 398.645 345.483 398.905 349.943 C 399.295 356.623 399.755 363.293 400.155 369.973 C 400.385 373.793 400.515 377.613 400.725 381.433 C 400.995 386.443 401.335 391.453 401.595 396.463 C 401.845 401.323 401.985 406.183 402.265 411.043 C 402.645 417.643 403.115 424.233 403.515 430.833 C 403.755 434.813 403.895 438.793 404.105 442.773 C 404.385 448.103 404.685 453.433 404.965 458.763 C 405.195 463.303 405.385 467.843 405.635 472.383 C 405.925 477.633 406.245 482.883 406.575 488.123 C 406.665 489.543 406.825 490.953 406.965 492.443 C 413.095 492.443 419.045 492.443 425.325 492.443 C 425.325 472.293 425.325 452.283 425.325 432.073 C 443.035 432.073 460.435 432.073 478.215 432.073 C 463.785 395.073 449.505 358.393 435.145 321.533 Z M 330.585 470.763 C 330.585 465.533 330.585 460.463 330.585 455.163 C 330.055 455.363 329.695 455.463 329.365 455.633 C 315.455 462.803 301.545 469.983 287.625 477.153 C 276.765 482.753 265.895 488.333 255.035 493.923 C 244.095 499.553 233.165 505.193 222.225 510.803 C 212.415 515.833 202.595 520.843 192.795 525.873 C 192.335 526.113 191.925 526.463 191.245 526.933 C 237.775 550.883 284.035 574.693 330.575 598.643 C 330.575 593.163 330.575 588.093 330.575 582.873 C 294.455 564.283 258.325 545.683 221.695 526.823 C 258.365 507.943 294.485 489.353 330.585 470.763 Z M 943.303 528.423 C 932.803 533.843 922.293 539.253 911.783 544.663 C 897.863 551.823 883.953 558.983 870.023 566.133 C 860.083 571.243 850.123 576.323 840.179 581.433 C 839.199 581.933 838.269 582.523 837.459 582.993 C 837.459 588.243 837.459 593.243 837.459 598.503 C 838.379 598.083 839.099 597.793 839.789 597.433 C 847.103 593.673 854.413 589.893 861.723 586.123 C 875.213 579.173 888.693 572.223 902.183 565.283 C 913.043 559.693 923.903 554.093 934.773 548.513 C 947.423 542.023 960.073 535.553 972.723 529.063 C 974.023 528.393 975.283 527.643 976.863 526.753 C 930.203 502.733 883.953 478.933 837.439 454.993 C 837.439 460.473 837.439 465.553 837.439 470.763 C 873.563 489.353 909.673 507.943 946.213 526.763 C 944.963 527.483 944.153 527.983 943.303 528.423 Z M 650.185 470.583 C 635.295 488.283 620.485 505.893 605.635 523.543 C 620.555 542.163 635.305 560.573 650.365 579.373 C 650.925 574.723 650.735 472.433 650.185 470.583 Z M 651.835 321.573 C 652.255 325.053 652.735 328.513 653.175 331.993 C 653.935 337.913 654.705 343.823 655.405 349.753 C 655.525 350.743 655.865 351.353 656.755 351.783 C 658.475 352.623 660.145 353.553 661.845 354.433 C 669.215 358.243 676.585 362.063 683.965 365.853 C 689.275 368.583 694.605 371.263 700.125 374.073 C 703.405 365.163 706.635 356.383 709.895 347.523 C 690.435 337.503 671.235 327.613 651.545 317.483 C 651.675 319.203 651.695 320.393 651.835 321.573 Z M 474.135 370.903 C 486.275 364.643 498.165 358.523 509.865 352.493 C 511.275 341.133 512.645 330.133 514.055 318.723 C 497.095 327.453 480.595 335.943 463.835 344.573 C 467.325 353.483 470.715 362.143 474.135 370.903 Z M 657.175 362.203 C 657.105 362.803 657.035 363.053 657.065 363.283 C 657.665 368.103 658.315 372.913 658.845 377.733 C 658.975 378.943 659.765 379.293 660.615 379.733 C 669.905 384.533 679.195 389.343 688.485 394.133 C 689.605 394.713 690.755 395.223 692.115 395.873 C 693.745 391.453 695.305 387.213 696.975 382.683 C 683.595 375.813 670.455 369.043 657.175 362.203 Z M 484.835 391.373 C 488.465 389.533 492.085 387.673 495.705 385.813 C 498.685 384.283 501.655 382.733 504.655 381.223 C 505.985 380.553 506.655 379.633 506.735 378.063 C 506.855 375.843 507.305 373.643 507.565 371.433 C 507.865 368.913 508.105 366.383 508.415 363.453 C 497.915 368.853 487.745 374.093 477.465 379.383 C 479.205 383.843 480.855 388.053 482.545 392.393 C 483.415 392.013 484.135 391.723 484.835 391.373 Z" id="path-1" class="selected" fill-opacity="1" fill="#29ccd6"/>
        </g>
      </g>
    </g>
  </g>
</svg>