<svg xmlns="http://www.w3.org/2000/svg" xmlns:xlink="http://www.w3.org/1999/xlink" version="1.1" style="" xml:space="preserve" width="1063" height="792"><rect id="backgroundrect" width="100%" height="100%" x="0" y="0" fill="none" stroke="none"/>

<g class="currentLayer" style=""><title>Layer 1</title><path d="M947.16,459.43571319580076 c-8.24,4.22 -16.49,8.42 -24.73,12.66 c-15.620000000000001,8.04 -31.23,16.1 -46.85,24.15 c-9.65,4.98 -19.3,9.97 -28.95,14.95 c-15.620000000000001,8.05 -31.24,16.09 -46.86,24.14 c-9.8,5.05 -19.58,10.12 -29.37,15.18 c-15.47,7.98 -30.95,15.95 -46.42,23.93 c-9.8,5.05 -19.59,10.1 -29.39,15.15 c-15.33,7.91 -30.66,15.82 -45.99,23.73 c-9.72,5.02 -19.44,10.04 -29.17,15.05 c-15.55,8.01 -31.1,16.02 -46.64,24.04 c-9.870000000000001,5.09 -19.72,10.19 -29.59,15.28 c-15.4,7.95 -30.81,15.88 -46.21,23.83 c-7.1,3.66 -14.19,7.33 -21.28,11.01 c-0.6100000000000001,0.32000000000000006 -1.1600000000000001,0.77 -1.7400000000000002,1.15 c-0.32000000000000006,0 -0.6400000000000001,0 -0.9600000000000001,0 c-0.43000000000000005,-0.32000000000000006 -0.8300000000000001,-0.7000000000000001 -1.31,-0.9400000000000001 c-11.72,-6.03 -23.44,-12.05 -35.16,-18.08 c-15.2,-7.83 -30.38,-15.67 -45.57,-23.5 c-9.870000000000001,-5.09 -19.73,-10.18 -29.6,-15.27 c-15.4,-7.94 -30.81,-15.88 -46.22,-23.83 c-9.8,-5.05 -19.58,-10.12 -29.38,-15.18 c-15.33,-7.91 -30.67,-15.8 -46.01,-23.71 c-9.870000000000001,-5.09 -19.73,-10.19 -29.59,-15.28 c-15.4,-7.95 -30.81,-15.89 -46.21,-23.83 c-9.8,-5.05 -19.59,-10.1 -29.39,-15.15 c-15.48,-7.98 -30.95,-15.96 -46.43,-23.94 c-9.72,-5.02 -19.44,-10.05 -29.17,-15.07 c-15.4,-7.94 -30.82,-15.88 -46.22,-23.82 c-4.33,-2.23 -8.63,-4.51 -13.17,-6.88 c0.53,-0.39000000000000007 0.9,-0.7300000000000001 1.33,-0.9600000000000001 c7.88,-4.07 15.76,-8.13 23.64,-12.19 c16.76,-8.620000000000001 33.53,-17.24 50.29,-25.87 c9.66,-4.97 19.3,-9.98 28.96,-14.95 c17.33,-8.92 34.67,-17.82 52,-26.73 c10.73,-5.51 21.45,-11.03 32.17,-16.55 c16.26,-8.37 32.52,-16.75 48.79,-25.12 c10.79,-5.5600000000000005 21.59,-11.11 32.39,-16.66 c0.8300000000000001,-0.43000000000000005 1.6600000000000001,-0.8700000000000001 2.8200000000000003,-1.48 c0.5800000000000001,10.35 1.1400000000000001,20.41 1.71,30.65 c-2.36,1.25 -4.73,2.54 -7.13,3.77 c-15.28,7.85 -30.56,15.68 -45.84,23.52 c-10.8,5.55 -21.59,11.1 -32.39,16.66 c-10.94,5.63 -21.87,11.26 -32.81,16.89 c-10.65,5.49 -21.3,10.98 -31.95,16.46 c-10.86,5.6 -21.73,11.18 -32.6,16.78 c-9.51,4.9 -19.02,9.82 -28.53,14.73 c-0.47000000000000003,0.25 -0.9,0.5800000000000001 -1.51,0.97 c2.52,1.32 4.83,2.55 7.17,3.7600000000000002 c11.51,5.92 23.02,11.82 34.52,17.75 c15.12,7.79 30.24,15.6 45.35,23.41 c9.79,5.06 19.59,10.12 29.38,15.17 c15.19,7.84 30.38,15.67 45.57,23.51 c9.8,5.05 19.59,10.1 29.39,15.16 c15.12,7.8 30.24,15.61 45.35,23.41 c9.79,5.06 19.59,10.11 29.38,15.17 c12.71,6.5600000000000005 25.41,13.11 38.12,19.66 c12.28,6.33 24.56,12.67 36.84,19.01 c15.12,7.8 30.24,15.6 45.35,23.41 c8.16,4.22 16.32,8.44 24.44,12.71 c1.18,0.6200000000000001 2.11,0.6500000000000001 3.31,0.010000000000000002 c6.640000000000001,-3.51 13.32,-6.93 20,-10.37 c15.69,-8.09 31.38,-16.18 47.07,-24.27 c9.65,-4.98 19.3,-9.97 28.95,-14.95 c15.26,-7.87 30.53,-15.74 45.79,-23.61 c9.65,-4.98 19.3,-9.96 28.96,-14.95 c15.33,-7.91 30.66,-15.82 45.99,-23.74 c9.72,-5.02 19.45,-10.04 29.17,-15.06 c15.19,-7.84 30.38,-15.67 45.57,-23.51 c9.72,-5.02 19.44,-10.04 29.17,-15.06 c15.26,-7.88 30.52,-15.75 45.78,-23.62 c9.72,-5.02 19.45,-10.03 29.17,-15.06 c5.03,-2.6 10.05,-5.22 15.41,-8 c-2.11,-1.13 -3.9699999999999998,-2.16 -5.85,-3.13 c-12.65,-6.5 -25.3,-12.98 -37.95,-19.48 c-10.870000000000001,-5.59 -21.73,-11.18 -32.6,-16.78 c-10.870000000000001,-5.59 -21.73,-11.19 -32.6,-16.78 c-10.8,-5.5600000000000005 -21.59,-11.11 -32.39,-16.66 c-10.8,-5.55 -21.59,-11.1 -32.39,-16.66 c-9.65,-4.98 -19.3,-9.97 -28.95,-14.96 c-0.49000000000000005,-0.25 -0.9400000000000001,-0.5700000000000001 -1.48,-0.9 c0.54,-10.12 1.07,-20.19 1.6300000000000001,-30.55 c2.8,1.3900000000000001 5.3100000000000005,2.6 7.78,3.87 c7.24,3.73 14.47,7.49 21.71,11.22 c14.49,7.45 28.99,14.89 43.48,22.34 c10.3,5.3 20.59,10.61 30.89,15.91 c16.76,8.63 33.53,17.24 50.29,25.87 c10.44,5.37 20.87,10.77 31.31,16.14 c16.62,8.55 33.25,17.09 49.87,25.64 c7.74,3.98 15.48,7.97 23.21,11.98 c1.7000000000000002,0.8800000000000001 3.34,1.86 5.01,2.8 C947.16,459.11571319580077 947.16,459.2757131958008 947.16,459.43571319580076 zM437.9,187.42571319580077 c-9.38,59.09 -18.71,117.89 -28.09,176.99 c14.9,0 29.41,0 44.08,0 c0.08000000000000002,12.65 -0.030000000000000006,25.06 0.06000000000000001,37.99 c0.8700000000000001,-0.91 1.32,-1.34 1.7200000000000002,-1.81 c9.47,-11.43 18.97,-22.84 28.35,-34.34 c1.21,-1.48 2.42,-1.96 4.24,-1.96 c14.56,0.06000000000000001 29.11,0.030000000000000006 43.67,0.030000000000000006 c0.8500000000000001,0 1.7000000000000002,0 2.8200000000000003,0 c-1.59,-10.16 -3.13,-19.99 -4.69,-29.82 c-1.54,-9.76 -3.1,-19.52 -4.67,-29.27 c-1.58,-9.84 -3.19,-19.67 -4.75,-29.51 c-1.56,-9.84 -3.06,-19.69 -4.61,-29.53 c-1.54,-9.76 -3.14,-19.51 -4.66,-29.28 c-1.52,-9.78 -3.21,-19.53 -4.6,-29.51 c14.18,2.07 27.99,4.08 42.22,6.16 c-25.71,-57.34 -51.2,-114.19 -76.71,-171.1 c-25.55,57.77 -51.04,115.42 -76.7,173.43 C409.83,193.04571319580077 423.7,190.26571319580077 437.9,187.42571319580077 zM265.26,554.1657131958008 c3.03,1.59 6.05,3.19 9.09,4.76 c14.26,7.38 28.53,14.73 42.78,22.12 c8.86,4.6 17.7,9.25 26.55,13.86 c13.53,7.05 27.06,14.1 40.59,21.14 c8.64,4.5 17.3,8.97 25.95,13.46 c13.39,6.97 26.78,13.95 40.16,20.92 c7.01,3.6500000000000004 14.04,7.27 21.03,10.97 c1.1,0.5800000000000001 1.99,0.7400000000000001 3.11,0.11000000000000001 c2.16,-1.21 4.39,-2.29 6.59,-3.44 c13.17,-6.86 26.34,-13.74 39.52,-20.59 c6.8,-3.54 13.620000000000001,-7.04 20.43,-10.58 c13.04,-6.78 26.06,-13.59 39.09,-20.37 c9.07,-4.72 18.16,-9.39 27.23,-14.11 c14.95,-7.78 29.88,-15.59 44.83,-23.36 c9.14,-4.75 18.3,-9.47 27.45,-14.21 c0.5800000000000001,-0.30000000000000004 1.1,-0.7300000000000001 1.9500000000000002,-1.3 c-1.53,-0.18000000000000002 -2.63,-0.38000000000000006 -3.74,-0.44000000000000006 c-3.98,-0.2 -7.97,-0.3400000000000001 -11.95,-0.53 c-1.99,-0.1 -3.9699999999999998,-0.28 -5.96,-0.43000000000000005 c-2.83,-0.22000000000000003 -5.41,0.23 -8.01,1.6300000000000001 c-9.85,5.3 -19.81,10.38 -29.73,15.53 c-9.07,4.71 -18.16,9.4 -27.24,14.09 c-17.53,9.05 -35.07,18.09 -52.59,27.15 c-5.46,2.8200000000000003 -10.9,5.7 -16.36,8.53 c-2.3,1.19 -4.63,2.3200000000000003 -7.41,3.71 c6.79,-23.19 13.43,-45.89 20.16,-68.89 c-2.51,0 -4.74,0 -6.97,0 c-13.52,0 -27.03,-0.030000000000000006 -40.55,0.04000000000000001 c-1.51,0.010000000000000002 -2.5300000000000002,-0.4 -3.42,-1.62 c-1.55,-2.13 -3.25,-4.15 -4.890000000000001,-6.21 c-9.1,-11.43 -18.2,-22.86 -27.31,-34.29 c-0.4,-0.51 -0.91,-0.93 -1.79,-1.81 c0,14.97 0,29.31 0,43.89 c-15.17,0 -30.1,0 -45.37,0 c6.54,23.04 13.25,45.7 19.79,68.79 c-0.7500000000000001,-0.30000000000000004 -1.05,-0.39000000000000007 -1.32,-0.53 c-15.05,-7.76 -30.1,-15.52 -45.15,-23.27 c-11.36,-5.85 -22.73,-11.69 -34.1,-17.53 c-17.48,-8.98 -34.96,-17.95 -52.43,-26.95 c-1.32,-0.6800000000000002 -2.62,-1.02 -4.11,-1.01 c-6.96,0.05000000000000001 -13.92,0.010000000000000002 -20.87,0.030000000000000006 c-1.6500000000000001,0.010000000000000002 -3.29,0.14 -4.94,0.22000000000000003 C265.32,553.8157131958008 265.29,553.9957131958008 265.26,554.1657131958008 zM675,480.43571319580076 c-0.53,-0.6400000000000001 -1.07,-1.27 -1.57,-1.9300000000000002 c-4.1,-5.41 -8.2,-10.82 -12.29,-16.24 c-14.38,-19.06 -28.77,-38.13 -43.14,-57.2 c-5.82,-7.72 -11.63,-15.44 -17.42,-23.17 c-0.7600000000000001,-1.01 -1.5,-1.61 -2.92,-1.6 c-10.64,0.07 -21.27,0.04000000000000001 -31.91,0.05000000000000001 c-0.6000000000000001,0 -1.21,0.14 -1.77,0.2 c0,52.46 0,104.72 0,157.04 c11.97,0 23.77,0 35.81,0 c0,-3.14 0,-6.16 0,-9.18 c0,-3.04 0,-6.08 0,-9.12 c0,-3.12 0,-6.24 0,-9.36 c0,-3.04 0,-6.08 0,-9.12 c0,-3.04 0,-6.08 0,-9.12 s0,-6.08 0,-9.12 c0,-3.04 0,-6.08 0,-9.12 c0,-3.04 0,-6.08 0,-9.12 c0,-3.12 0,-6.24 0,-9.36 c0,-3.04 -0.030000000000000006,-6.08 0.010000000000000002,-9.12 c0.030000000000000006,-2.9699999999999998 -0.15000000000000002,-5.96 0.16000000000000003,-9.38 c0.7000000000000001,0.8600000000000001 1.11,1.32 1.48,1.82 c5.06,6.79 10.1,13.59 15.16,20.37 c8.13,10.88 16.28,21.74 24.4,32.62 c11.18,14.98 22.36,29.96 33.5,44.96 c0.81,1.09 1.6800000000000002,1.48 3,1.47 c10.4,-0.05000000000000001 20.79,-0.020000000000000004 31.19,-0.030000000000000006 c0.6100000000000001,0 1.21,-0.12000000000000001 1.79,-0.18000000000000002 c0,-52.44 0,-104.7 0,-157.05 c-11.7,0 -23.25,0 -35.05,0 c0,33.36 0,66.57 0,99.78 C675.3,480.3257131958008 675.15,480.3857131958008 675,480.43571319580076 zM272.27,380.4657131958008 c-12.03,0 -23.82,0 -35.74,0 c0,52.44 0,104.76 0,157.12 c11.96,0 23.76,0 35.82,0 c0,-2.67 0,-5.21 0,-7.74 c0,-2.64 0,-5.28 0,-7.92 c0,-2.56 0,-5.12 0,-7.68 c0,-2.64 0,-5.28 0,-7.92 c0,-2.56 0,-5.12 0,-7.68 c0,-2.64 0,-5.28 0,-7.92 c0,-2.56 -0.020000000000000004,-5.12 0,-7.68 c0.020000000000000004,-2.6 -0.09000000000000002,-5.2 0.07,-7.7 c19.65,0 38.96,0 58.55,0 c0,20.84 0,41.5 0,62.18 c12.14,0 24.01,0 35.9,0 c0,-52.43 0,-104.68 0,-157.03 c-12.03,0 -23.89,0 -36,0 c0,20.13 0,40.08 0,60.16 c-19.57,0 -38.89,0 -58.61,0 C272.27,420.48571319580077 272.27,400.5357131958008 272.27,380.4657131958008 zM437.87,446.3957131958008 c0,-21.94 0,-43.87 0,-65.93 c-12.06,0 -23.85,0 -35.76,0 c0,52.45 0,104.77 0,157.11 c11.97,0 23.76,0 35.86,0 c0,-24.46 0,-48.77 0,-73.62 c0.7500000000000001,0.8500000000000001 1.13,1.23 1.46,1.6500000000000001 c18.74,23.55 37.49,47.1 56.21,70.66 c0.7300000000000001,0.92 1.47,1.48 2.7600000000000002,1.48 c13.28,-0.05000000000000001 26.55,-0.030000000000000006 39.83,-0.04000000000000001 c0.49000000000000005,0 0.98,-0.17 1.6900000000000002,-0.29000000000000004 c-11.05,-13.81 -21.92,-27.39 -32.8,-40.97 c-10.92,-13.64 -21.85,-27.27 -32.79,-40.93 c8.4,-9.99 16.67,-19.82 24.93,-29.65 c12.22,-14.54 24.45,-29.07 36.67,-43.61 c0.42000000000000004,-0.5 0.7500000000000001,-1.07 1.35,-1.9300000000000002 c-6.02,0 -11.53,0 -17.04,0 c-8.4,0 -16.8,0.030000000000000006 -25.19,-0.030000000000000006 c-1.26,-0.010000000000000002 -2.12,0.35000000000000003 -2.8600000000000003,1.32 c-0.92,1.21 -1.8800000000000001,2.38 -2.85,3.55 c-13.14,15.85 -26.28,31.71 -39.42,47.55 c-3.8200000000000003,4.61 -7.65,9.2 -11.48,13.8 C438.25,446.48571319580077 438.06,446.43571319580076 437.87,446.3957131958008 zM588.65,242.9657131958008 c13.32,3.6 26.58,7.18 40,10.81 c-2.83,7.66 -5.54,14.99 -8.24,22.32 c-2.71,7.34 -5.4,14.68 -8.1,22.02 c-2.7,7.34 -5.4,14.68 -8.11,22.02 c-2.7,7.34 -5.46,14.66 -8.11,22.02 c-2.63,7.32 -5.51,14.55 -8.04,22.18 c1.17,0 1.97,0 2.7600000000000002,0 c4.88,0 9.76,0.05000000000000001 14.64,-0.030000000000000006 c1.42,-0.020000000000000004 2.3200000000000003,0.4 3.18,1.56 c4.62,6.22 9.35,12.36 14.01,18.54 c11.73,15.56 23.45,31.13 35.19,46.69 c0.35000000000000003,0.47000000000000003 0.8,0.8700000000000001 1.3800000000000001,1.5 c0.16000000000000003,-1.7400000000000002 0.35000000000000003,-3.16 0.42000000000000004,-4.59 c0.24000000000000002,-5.02 0.4,-10.04 0.6700000000000002,-15.06 c0.38000000000000006,-6.84 0.8500000000000001,-13.68 1.25,-20.51 c0.23,-4.06 0.37000000000000005,-8.13 0.5900000000000001,-12.19 c0.27,-4.93 0.5800000000000001,-9.86 0.8500000000000001,-14.8 c0.22000000000000003,-4.06 0.4,-8.12 0.6000000000000001,-12.19 c0.28,-5.49 0.5700000000000001,-10.98 0.8400000000000001,-16.48 c0.23,-4.7 0.4,-9.4 0.6600000000000001,-14.1 c0.39000000000000007,-6.84 0.8500000000000001,-13.68 1.25,-20.51 c0.23,-3.98 0.39000000000000007,-7.96 0.6000000000000001,-11.94 c0.27,-5.09 0.5900000000000001,-10.18 0.8400000000000001,-15.28 c0.25,-5.02 0.39000000000000007,-10.04 0.6700000000000002,-15.06 c0.37000000000000005,-6.76 0.8500000000000001,-13.52 1.25,-20.27 c0.24000000000000002,-4.14 0.41000000000000003,-8.28 0.6200000000000001,-12.42 c0.28,-5.57 0.56,-11.14 0.8300000000000001,-16.72 c0.23,-4.62 0.4,-9.24 0.6700000000000002,-13.86 c0.39000000000000007,-6.84 0.8500000000000001,-13.68 1.25,-20.51 c0.23,-3.9 0.38000000000000006,-7.8100000000000005 0.5700000000000001,-11.71 c0.11000000000000001,-2.19 0.22000000000000003,-4.38 0.3400000000000001,-6.67 C672.13,158.79571319580077 589.92,240.9457131958008 588.65,242.9657131958008 zM324.64,253.7657131958008 c14.29,-3.6500000000000004 28.31,-7.22 42.54,-10.86 c-0.39000000000000007,-0.53 -0.54,-0.81 -0.7500000000000001,-1.02 c-28.06,-28.02 -56.12,-56.04 -84.18,-84.05 c-0.05000000000000001,-0.05000000000000001 -0.15000000000000002,-0.06000000000000001 -0.22000000000000003,-0.05000000000000001 c-0.08000000000000002,0.010000000000000002 -0.15000000000000002,0.05000000000000001 -0.37000000000000005,0.14 c0,0.6400000000000001 -0.04000000000000001,1.34 0.010000000000000002,2.04 c0.41000000000000003,6.68 0.8500000000000001,13.35 1.25,20.03 c0.22000000000000003,3.74 0.36000000000000004,7.48 0.56,11.23 c0.29000000000000004,5.49 0.6000000000000001,10.98 0.8900000000000001,16.47 c0.23,4.46 0.41000000000000003,8.92 0.6700000000000002,13.38 c0.39000000000000007,6.68 0.8500000000000001,13.35 1.25,20.03 c0.23,3.8200000000000003 0.38000000000000006,7.640000000000001 0.5800000000000001,11.46 c0.28,5.41 0.5900000000000001,10.82 0.8700000000000001,16.23 c0.23,4.46 0.4,8.92 0.6600000000000001,13.38 c0.39000000000000007,6.68 0.8500000000000001,13.35 1.25,20.03 c0.23,3.8200000000000003 0.36000000000000004,7.640000000000001 0.5700000000000001,11.46 c0.27,5.01 0.6100000000000001,10.02 0.8700000000000001,15.03 c0.25,4.86 0.39000000000000007,9.72 0.6700000000000002,14.58 c0.38000000000000006,6.6 0.8500000000000001,13.19 1.25,19.79 c0.24000000000000002,3.98 0.38000000000000006,7.96 0.5900000000000001,11.94 c0.28,5.33 0.5800000000000001,10.66 0.8600000000000001,15.99 c0.23,4.54 0.42000000000000004,9.08 0.6700000000000002,13.620000000000001 c0.29000000000000004,5.25 0.6100000000000001,10.5 0.9400000000000001,15.74 c0.09000000000000002,1.42 0.25,2.83 0.39000000000000007,4.32 c6.13,0 12.08,0 18.36,0 c0,-20.15 0,-40.16 0,-60.37 c17.71,0 35.11,0 52.89,0 C353.28,327.30571319580076 339,290.62571319580076 324.64,253.7657131958008 zM220.07999999999998,402.99571319580076 c0,-5.23 0,-10.3 0,-15.6 c-0.53,0.2 -0.8900000000000001,0.30000000000000004 -1.22,0.47000000000000003 c-13.91,7.17 -27.82,14.35 -41.74,21.52 c-10.86,5.6 -21.73,11.18 -32.59,16.77 c-10.94,5.63 -21.87,11.27 -32.81,16.88 c-9.81,5.03 -19.63,10.04 -29.43,15.07 c-0.46,0.24000000000000002 -0.8700000000000001,0.5900000000000001 -1.55,1.06 c46.53,23.95 92.79,47.76 139.33,71.71 c0,-5.48 0,-10.55 0,-15.77 c-36.12,-18.59 -72.25,-37.19 -108.88,-56.05 C147.86,440.17571319580077 183.98,421.5857131958008 220.07999999999998,402.99571319580076 zM832.79,460.6557131958008 c-10.5,5.42 -21.01,10.83 -31.52,16.24 c-13.92,7.16 -27.83,14.32 -41.76,21.47 c-9.94,5.11 -19.9,10.19 -29.84,15.3 c-0.98,0.5 -1.9100000000000001,1.09 -2.72,1.56 c0,5.25 0,10.25 0,15.51 c0.92,-0.42000000000000004 1.6400000000000001,-0.7100000000000001 2.33,-1.07 c7.3100000000000005,-3.7600000000000002 14.620000000000001,-7.54 21.93,-11.31 c13.49,-6.95 26.97,-13.9 40.46,-20.84 c10.86,-5.59 21.72,-11.19 32.59,-16.77 c12.65,-6.49 25.3,-12.96 37.95,-19.45 c1.3,-0.6700000000000002 2.56,-1.42 4.14,-2.31 c-46.66,-24.02 -92.91,-47.82 -139.42,-71.76 c0,5.48 0,10.56 0,15.77 c36.12,18.59 72.23,37.18 108.77,56 C834.45,459.7157131958008 833.64,460.2157131958008 832.79,460.6557131958008 zM539.68,402.81571319580075 c-14.89,17.7 -29.7,35.31 -44.55,52.96 c14.92,18.62 29.67,37.03 44.73,55.83 C540.42,506.95571319580074 540.23,404.6657131958008 539.68,402.81571319580075 zM541.33,253.80571319580076 c0.42000000000000004,3.48 0.9,6.94 1.34,10.42 c0.7600000000000001,5.92 1.53,11.83 2.23,17.76 c0.12000000000000001,0.99 0.46,1.6 1.35,2.03 c1.7200000000000002,0.8400000000000001 3.39,1.77 5.09,2.6500000000000004 c7.37,3.81 14.74,7.63 22.12,11.42 c5.3100000000000005,2.73 10.64,5.41 16.16,8.22 c3.2800000000000002,-8.91 6.51,-17.69 9.77,-26.55 c-19.46,-10.02 -38.66,-19.91 -58.35,-30.04 C541.17,251.43571319580076 541.19,252.62571319580076 541.33,253.80571319580076 zM363.63,303.1357131958008 c12.14,-6.26 24.03,-12.38 35.73,-18.41 c1.4100000000000001,-11.36 2.7800000000000002,-22.36 4.19,-33.77 c-16.96,8.73 -33.46,17.22 -50.22,25.85 C356.82,285.7157131958008 360.21,294.37571319580076 363.63,303.1357131958008 zM546.67,294.43571319580076 c-0.07,0.6000000000000001 -0.14,0.8500000000000001 -0.11000000000000001,1.08 c0.6000000000000001,4.82 1.25,9.63 1.78,14.45 c0.13,1.21 0.92,1.56 1.77,2 c9.29,4.8 18.58,9.61 27.87,14.4 c1.12,0.5800000000000001 2.27,1.09 3.63,1.7400000000000002 c1.6300000000000001,-4.42 3.19,-8.66 4.86,-13.19 C573.09,308.0457131958008 559.95,301.2757131958008 546.67,294.43571319580076 zM374.33,323.6057131958008 c3.63,-1.84 7.25,-3.7 10.870000000000001,-5.5600000000000005 c2.98,-1.53 5.95,-3.08 8.95,-4.59 c1.33,-0.6700000000000002 2,-1.59 2.08,-3.16 c0.12000000000000001,-2.22 0.5700000000000001,-4.42 0.8300000000000001,-6.63 c0.30000000000000004,-2.52 0.54,-5.05 0.8500000000000001,-7.98 c-10.5,5.4 -20.67,10.64 -30.95,15.93 c1.7400000000000002,4.46 3.39,8.67 5.08,13.01 C372.91,324.24571319580076 373.63,323.9557131958008 374.33,323.6057131958008 z" id="svg_1" class="selected" fill-opacity="1" fill="#5fbff9"/></g></svg>